<mxfile host="app.diagrams.net" modified="2024-04-11T03:32:26.862Z" agent="Mozilla/5.0 (Macintosh; Intel Mac OS X 10_15_7) AppleWebKit/537.36 (KHTML, like Gecko) Chrome/123.0.0.0 Safari/537.36" etag="GkL4fPox0t6SD23Kv4JM" version="24.0.6" type="device">
  <diagram name="Page-1" id="euUB1JI1pM0_XUN8o0wz">
    <mxGraphModel dx="4076" dy="1953" grid="1" gridSize="10" guides="1" tooltips="1" connect="1" arrows="1" fold="1" page="1" pageScale="1" pageWidth="850" pageHeight="1100" math="0" shadow="0">
      <root>
        <mxCell id="0" />
        <mxCell id="1" parent="0" />
        <mxCell id="IzQ1kHWyZ4dIScxcZV7I-5" value="Referee" style="swimlane;fontStyle=0;childLayout=stackLayout;horizontal=1;startSize=26;fillColor=none;horizontalStack=0;resizeParent=1;resizeParentMax=0;resizeLast=0;collapsible=1;marginBottom=0;whiteSpace=wrap;html=1;" parent="1" vertex="1">
          <mxGeometry x="280" y="837" width="125" height="78" as="geometry" />
        </mxCell>
        <mxCell id="IzQ1kHWyZ4dIScxcZV7I-6" value="&lt;u&gt;id&lt;/u&gt;" style="text;strokeColor=none;fillColor=none;align=left;verticalAlign=top;spacingLeft=4;spacingRight=4;overflow=hidden;rotatable=0;points=[[0,0.5],[1,0.5]];portConstraint=eastwest;whiteSpace=wrap;html=1;" parent="IzQ1kHWyZ4dIScxcZV7I-5" vertex="1">
          <mxGeometry y="26" width="125" height="26" as="geometry" />
        </mxCell>
        <mxCell id="IzQ1kHWyZ4dIScxcZV7I-7" value="name" style="text;strokeColor=none;fillColor=none;align=left;verticalAlign=top;spacingLeft=4;spacingRight=4;overflow=hidden;rotatable=0;points=[[0,0.5],[1,0.5]];portConstraint=eastwest;whiteSpace=wrap;html=1;" parent="IzQ1kHWyZ4dIScxcZV7I-5" vertex="1">
          <mxGeometry y="52" width="125" height="26" as="geometry" />
        </mxCell>
        <mxCell id="IzQ1kHWyZ4dIScxcZV7I-10" value="Stadium" style="swimlane;fontStyle=0;childLayout=stackLayout;horizontal=1;startSize=26;fillColor=none;horizontalStack=0;resizeParent=1;resizeParentMax=0;resizeLast=0;collapsible=1;marginBottom=0;whiteSpace=wrap;html=1;" parent="1" vertex="1">
          <mxGeometry x="280" y="1023" width="125" height="78" as="geometry" />
        </mxCell>
        <mxCell id="IzQ1kHWyZ4dIScxcZV7I-11" value="&lt;div style=&quot;text-align: center;&quot;&gt;&lt;span style=&quot;font-size: 12px;&quot;&gt;&lt;u&gt;id&lt;/u&gt;&lt;/span&gt;&lt;/div&gt;" style="text;strokeColor=none;fillColor=none;align=left;verticalAlign=top;spacingLeft=4;spacingRight=4;overflow=hidden;rotatable=0;points=[[0,0.5],[1,0.5]];portConstraint=eastwest;whiteSpace=wrap;html=1;" parent="IzQ1kHWyZ4dIScxcZV7I-10" vertex="1">
          <mxGeometry y="26" width="125" height="26" as="geometry" />
        </mxCell>
        <mxCell id="IzQ1kHWyZ4dIScxcZV7I-12" value="name" style="text;strokeColor=none;fillColor=none;align=left;verticalAlign=top;spacingLeft=4;spacingRight=4;overflow=hidden;rotatable=0;points=[[0,0.5],[1,0.5]];portConstraint=eastwest;whiteSpace=wrap;html=1;" parent="IzQ1kHWyZ4dIScxcZV7I-10" vertex="1">
          <mxGeometry y="52" width="125" height="26" as="geometry" />
        </mxCell>
        <mxCell id="0EmakBo3mS6fOf4XOf90-34" style="edgeStyle=orthogonalEdgeStyle;rounded=0;orthogonalLoop=1;jettySize=auto;html=1;exitX=0.5;exitY=0;exitDx=0;exitDy=0;entryX=0.5;entryY=1;entryDx=0;entryDy=0;endArrow=none;endFill=0;" edge="1" parent="1" source="IzQ1kHWyZ4dIScxcZV7I-19" target="0EmakBo3mS6fOf4XOf90-33">
          <mxGeometry relative="1" as="geometry" />
        </mxCell>
        <mxCell id="IzQ1kHWyZ4dIScxcZV7I-19" value="Manager" style="swimlane;fontStyle=0;childLayout=stackLayout;horizontal=1;startSize=26;fillColor=none;horizontalStack=0;resizeParent=1;resizeParentMax=0;resizeLast=0;collapsible=1;marginBottom=0;whiteSpace=wrap;html=1;" parent="1" vertex="1">
          <mxGeometry x="435" y="48.5" width="125" height="126" as="geometry" />
        </mxCell>
        <mxCell id="IzQ1kHWyZ4dIScxcZV7I-20" value="&lt;u&gt;id&lt;/u&gt;" style="text;strokeColor=none;fillColor=none;align=left;verticalAlign=top;spacingLeft=4;spacingRight=4;overflow=hidden;rotatable=0;points=[[0,0.5],[1,0.5]];portConstraint=eastwest;whiteSpace=wrap;html=1;" parent="IzQ1kHWyZ4dIScxcZV7I-19" vertex="1">
          <mxGeometry y="26" width="125" height="25" as="geometry" />
        </mxCell>
        <mxCell id="IzQ1kHWyZ4dIScxcZV7I-21" value="name" style="text;strokeColor=none;fillColor=none;align=left;verticalAlign=top;spacingLeft=4;spacingRight=4;overflow=hidden;rotatable=0;points=[[0,0.5],[1,0.5]];portConstraint=eastwest;whiteSpace=wrap;html=1;" parent="IzQ1kHWyZ4dIScxcZV7I-19" vertex="1">
          <mxGeometry y="51" width="125" height="25" as="geometry" />
        </mxCell>
        <mxCell id="IzQ1kHWyZ4dIScxcZV7I-23" value="nickname" style="text;strokeColor=none;fillColor=none;align=left;verticalAlign=top;spacingLeft=4;spacingRight=4;overflow=hidden;rotatable=0;points=[[0,0.5],[1,0.5]];portConstraint=eastwest;whiteSpace=wrap;html=1;" parent="IzQ1kHWyZ4dIScxcZV7I-19" vertex="1">
          <mxGeometry y="76" width="125" height="25" as="geometry" />
        </mxCell>
        <mxCell id="IzQ1kHWyZ4dIScxcZV7I-24" value="&lt;div style=&quot;text-align: center;&quot;&gt;&lt;span style=&quot;font-size: 12px;&quot;&gt;date_of_birth&lt;/span&gt;&lt;/div&gt;" style="text;strokeColor=none;fillColor=none;align=left;verticalAlign=top;spacingLeft=4;spacingRight=4;overflow=hidden;rotatable=0;points=[[0,0.5],[1,0.5]];portConstraint=eastwest;whiteSpace=wrap;html=1;" parent="IzQ1kHWyZ4dIScxcZV7I-19" vertex="1">
          <mxGeometry y="101" width="125" height="25" as="geometry" />
        </mxCell>
        <mxCell id="ihPTWZ4L9GCANW0JNGpA-5" value="" style="edgeStyle=orthogonalEdgeStyle;rounded=0;orthogonalLoop=1;jettySize=auto;html=1;endArrow=none;endFill=0;startArrow=none;startFill=0;exitX=0.004;exitY=0.12;exitDx=0;exitDy=0;exitPerimeter=0;" parent="1" source="IzQ1kHWyZ4dIScxcZV7I-30" target="ihPTWZ4L9GCANW0JNGpA-4" edge="1">
          <mxGeometry relative="1" as="geometry" />
        </mxCell>
        <mxCell id="ihPTWZ4L9GCANW0JNGpA-14" value="" style="edgeStyle=orthogonalEdgeStyle;rounded=0;orthogonalLoop=1;jettySize=auto;html=1;endArrow=none;endFill=0;startArrow=none;startFill=0;exitX=0.996;exitY=0.115;exitDx=0;exitDy=0;exitPerimeter=0;" parent="1" source="IzQ1kHWyZ4dIScxcZV7I-30" target="ihPTWZ4L9GCANW0JNGpA-13" edge="1">
          <mxGeometry relative="1" as="geometry" />
        </mxCell>
        <mxCell id="IzQ1kHWyZ4dIScxcZV7I-27" value="Team" style="swimlane;fontStyle=0;childLayout=stackLayout;horizontal=1;startSize=26;fillColor=none;horizontalStack=0;resizeParent=1;resizeParentMax=0;resizeLast=0;collapsible=1;marginBottom=0;whiteSpace=wrap;html=1;" parent="1" vertex="1">
          <mxGeometry x="57" y="48.5" width="125" height="126" as="geometry" />
        </mxCell>
        <mxCell id="IzQ1kHWyZ4dIScxcZV7I-28" value="&lt;u&gt;id&lt;/u&gt;" style="text;strokeColor=none;fillColor=none;align=left;verticalAlign=middle;spacingLeft=4;spacingRight=4;overflow=hidden;rotatable=0;points=[[0,0.5],[1,0.5]];portConstraint=eastwest;whiteSpace=wrap;html=1;" parent="IzQ1kHWyZ4dIScxcZV7I-27" vertex="1">
          <mxGeometry y="26" width="125" height="25" as="geometry" />
        </mxCell>
        <mxCell id="IzQ1kHWyZ4dIScxcZV7I-29" value="&lt;div style=&quot;text-align: center;&quot;&gt;name&lt;/div&gt;" style="text;strokeColor=none;fillColor=none;align=left;verticalAlign=top;spacingLeft=4;spacingRight=4;overflow=hidden;rotatable=0;points=[[0,0.5],[1,0.5]];portConstraint=eastwest;whiteSpace=wrap;html=1;" parent="IzQ1kHWyZ4dIScxcZV7I-27" vertex="1">
          <mxGeometry y="51" width="125" height="25" as="geometry" />
        </mxCell>
        <mxCell id="IzQ1kHWyZ4dIScxcZV7I-30" value="&lt;div style=&quot;text-align: center;&quot;&gt;gender&lt;/div&gt;" style="text;strokeColor=none;fillColor=none;align=left;verticalAlign=top;spacingLeft=4;spacingRight=4;overflow=hidden;rotatable=0;points=[[0,0.5],[1,0.5]];portConstraint=eastwest;whiteSpace=wrap;html=1;" parent="IzQ1kHWyZ4dIScxcZV7I-27" vertex="1">
          <mxGeometry y="76" width="125" height="25" as="geometry" />
        </mxCell>
        <mxCell id="ihPTWZ4L9GCANW0JNGpA-3" value="&lt;div style=&quot;text-align: center;&quot;&gt;group&lt;/div&gt;" style="text;strokeColor=none;fillColor=none;align=left;verticalAlign=top;spacingLeft=4;spacingRight=4;overflow=hidden;rotatable=0;points=[[0,0.5],[1,0.5]];portConstraint=eastwest;whiteSpace=wrap;html=1;" parent="IzQ1kHWyZ4dIScxcZV7I-27" vertex="1">
          <mxGeometry y="101" width="125" height="25" as="geometry" />
        </mxCell>
        <mxCell id="ihPTWZ4L9GCANW0JNGpA-19" value="" style="edgeStyle=orthogonalEdgeStyle;rounded=0;orthogonalLoop=1;jettySize=auto;html=1;endArrow=none;endFill=0;startArrow=none;startFill=0;exitX=1.014;exitY=0.192;exitDx=0;exitDy=0;exitPerimeter=0;" parent="1" target="ihPTWZ4L9GCANW0JNGpA-18" edge="1">
          <mxGeometry relative="1" as="geometry">
            <mxPoint x="-18.039999999999964" y="597.992" as="sourcePoint" />
          </mxGeometry>
        </mxCell>
        <mxCell id="ihPTWZ4L9GCANW0JNGpA-22" value="" style="edgeStyle=orthogonalEdgeStyle;rounded=0;orthogonalLoop=1;jettySize=auto;html=1;endArrow=none;endFill=0;startArrow=none;startFill=0;exitX=0.8;exitY=1.115;exitDx=0;exitDy=0;exitPerimeter=0;entryX=0;entryY=0.5;entryDx=0;entryDy=0;" parent="1" source="IzQ1kHWyZ4dIScxcZV7I-66" target="ihPTWZ4L9GCANW0JNGpA-21" edge="1">
          <mxGeometry relative="1" as="geometry">
            <mxPoint x="-20" y="789" as="sourcePoint" />
            <Array as="points">
              <mxPoint x="-48" y="1051" />
            </Array>
          </mxGeometry>
        </mxCell>
        <mxCell id="IzQ1kHWyZ4dIScxcZV7I-50" value="Match" style="swimlane;fontStyle=0;childLayout=stackLayout;horizontal=1;startSize=26;fillColor=none;horizontalStack=0;resizeParent=1;resizeParentMax=0;resizeLast=0;collapsible=1;marginBottom=0;whiteSpace=wrap;html=1;" parent="1" vertex="1">
          <mxGeometry x="-160" y="541" width="140" height="260" as="geometry" />
        </mxCell>
        <mxCell id="IzQ1kHWyZ4dIScxcZV7I-51" value="&lt;u&gt;id&lt;/u&gt;" style="text;strokeColor=none;fillColor=none;align=left;verticalAlign=middle;spacingLeft=4;spacingRight=4;overflow=hidden;rotatable=0;points=[[0,0.5],[1,0.5]];portConstraint=eastwest;whiteSpace=wrap;html=1;" parent="IzQ1kHWyZ4dIScxcZV7I-50" vertex="1">
          <mxGeometry y="26" width="140" height="26" as="geometry" />
        </mxCell>
        <mxCell id="IzQ1kHWyZ4dIScxcZV7I-68" value="&lt;div style=&quot;text-align: center;&quot;&gt;referee&lt;/div&gt;" style="text;strokeColor=none;fillColor=none;align=left;verticalAlign=top;spacingLeft=4;spacingRight=4;overflow=hidden;rotatable=0;points=[[0,0.5],[1,0.5]];portConstraint=eastwest;whiteSpace=wrap;html=1;" parent="IzQ1kHWyZ4dIScxcZV7I-50" vertex="1">
          <mxGeometry y="52" width="140" height="26" as="geometry" />
        </mxCell>
        <mxCell id="IzQ1kHWyZ4dIScxcZV7I-52" value="&lt;span&gt;competition&lt;/span&gt;" style="text;strokeColor=none;fillColor=none;align=left;verticalAlign=top;spacingLeft=4;spacingRight=4;overflow=hidden;rotatable=0;points=[[0,0.5],[1,0.5]];portConstraint=eastwest;whiteSpace=wrap;html=1;fontStyle=0" parent="IzQ1kHWyZ4dIScxcZV7I-50" vertex="1">
          <mxGeometry y="78" width="140" height="26" as="geometry" />
        </mxCell>
        <mxCell id="IzQ1kHWyZ4dIScxcZV7I-53" value="&lt;span&gt;season&lt;/span&gt;" style="text;strokeColor=none;fillColor=none;align=left;verticalAlign=top;spacingLeft=4;spacingRight=4;overflow=hidden;rotatable=0;points=[[0,0.5],[1,0.5]];portConstraint=eastwest;whiteSpace=wrap;html=1;fontStyle=0" parent="IzQ1kHWyZ4dIScxcZV7I-50" vertex="1">
          <mxGeometry y="104" width="140" height="26" as="geometry" />
        </mxCell>
        <mxCell id="IzQ1kHWyZ4dIScxcZV7I-59" value="match_date" style="text;strokeColor=none;fillColor=none;align=left;verticalAlign=top;spacingLeft=4;spacingRight=4;overflow=hidden;rotatable=0;points=[[0,0.5],[1,0.5]];portConstraint=eastwest;whiteSpace=wrap;html=1;fontStyle=0" parent="IzQ1kHWyZ4dIScxcZV7I-50" vertex="1">
          <mxGeometry y="130" width="140" height="26" as="geometry" />
        </mxCell>
        <mxCell id="IzQ1kHWyZ4dIScxcZV7I-60" value="&lt;span&gt;match_kickoff&lt;/span&gt;" style="text;strokeColor=none;fillColor=none;align=left;verticalAlign=top;spacingLeft=4;spacingRight=4;overflow=hidden;rotatable=0;points=[[0,0.5],[1,0.5]];portConstraint=eastwest;whiteSpace=wrap;html=1;fontStyle=0" parent="IzQ1kHWyZ4dIScxcZV7I-50" vertex="1">
          <mxGeometry y="156" width="140" height="26" as="geometry" />
        </mxCell>
        <mxCell id="IzQ1kHWyZ4dIScxcZV7I-56" value="&lt;div style=&quot;text-align: center;&quot;&gt;homeTeam_score&lt;/div&gt;" style="text;strokeColor=none;fillColor=none;align=left;verticalAlign=top;spacingLeft=4;spacingRight=4;overflow=hidden;rotatable=0;points=[[0,0.5],[1,0.5]];portConstraint=eastwest;whiteSpace=wrap;html=1;" parent="IzQ1kHWyZ4dIScxcZV7I-50" vertex="1">
          <mxGeometry y="182" width="140" height="26" as="geometry" />
        </mxCell>
        <mxCell id="IzQ1kHWyZ4dIScxcZV7I-57" value="awayTeam_score" style="text;strokeColor=none;fillColor=none;align=left;verticalAlign=top;spacingLeft=4;spacingRight=4;overflow=hidden;rotatable=0;points=[[0,0.5],[1,0.5]];portConstraint=eastwest;whiteSpace=wrap;html=1;" parent="IzQ1kHWyZ4dIScxcZV7I-50" vertex="1">
          <mxGeometry y="208" width="140" height="26" as="geometry" />
        </mxCell>
        <mxCell id="IzQ1kHWyZ4dIScxcZV7I-66" value="match_week" style="text;strokeColor=none;fillColor=none;align=left;verticalAlign=top;spacingLeft=4;spacingRight=4;overflow=hidden;rotatable=0;points=[[0,0.5],[1,0.5]];portConstraint=eastwest;whiteSpace=wrap;html=1;" parent="IzQ1kHWyZ4dIScxcZV7I-50" vertex="1">
          <mxGeometry y="234" width="140" height="26" as="geometry" />
        </mxCell>
        <mxCell id="IzQ1kHWyZ4dIScxcZV7I-86" value="Competition" style="swimlane;fontStyle=0;childLayout=stackLayout;horizontal=1;startSize=26;fillColor=none;horizontalStack=0;resizeParent=1;resizeParentMax=0;resizeLast=0;collapsible=1;marginBottom=0;whiteSpace=wrap;html=1;" parent="1" vertex="1">
          <mxGeometry x="435" y="295" width="125" height="265" as="geometry" />
        </mxCell>
        <mxCell id="IzQ1kHWyZ4dIScxcZV7I-87" value="&lt;u&gt;id&lt;/u&gt;" style="text;strokeColor=none;fillColor=none;align=left;verticalAlign=middle;spacingLeft=4;spacingRight=4;overflow=hidden;rotatable=0;points=[[0,0.5],[1,0.5]];portConstraint=eastwest;whiteSpace=wrap;html=1;" parent="IzQ1kHWyZ4dIScxcZV7I-86" vertex="1">
          <mxGeometry y="26" width="125" height="31" as="geometry" />
        </mxCell>
        <mxCell id="IzQ1kHWyZ4dIScxcZV7I-88" value="name" style="text;strokeColor=none;fillColor=none;align=left;verticalAlign=top;spacingLeft=4;spacingRight=4;overflow=hidden;rotatable=0;points=[[0,0.5],[1,0.5]];portConstraint=eastwest;whiteSpace=wrap;html=1;" parent="IzQ1kHWyZ4dIScxcZV7I-86" vertex="1">
          <mxGeometry y="57" width="125" height="26" as="geometry" />
        </mxCell>
        <mxCell id="IzQ1kHWyZ4dIScxcZV7I-89" value="&lt;div style=&quot;text-align: center;&quot;&gt;season&lt;/div&gt;" style="text;strokeColor=none;fillColor=none;align=left;verticalAlign=top;spacingLeft=4;spacingRight=4;overflow=hidden;rotatable=0;points=[[0,0.5],[1,0.5]];portConstraint=eastwest;whiteSpace=wrap;html=1;" parent="IzQ1kHWyZ4dIScxcZV7I-86" vertex="1">
          <mxGeometry y="83" width="125" height="26" as="geometry" />
        </mxCell>
        <mxCell id="IzQ1kHWyZ4dIScxcZV7I-91" value="gender" style="text;strokeColor=none;fillColor=none;align=left;verticalAlign=top;spacingLeft=4;spacingRight=4;overflow=hidden;rotatable=0;points=[[0,0.5],[1,0.5]];portConstraint=eastwest;whiteSpace=wrap;html=1;" parent="IzQ1kHWyZ4dIScxcZV7I-86" vertex="1">
          <mxGeometry y="109" width="125" height="26" as="geometry" />
        </mxCell>
        <mxCell id="IzQ1kHWyZ4dIScxcZV7I-92" value="youth" style="text;strokeColor=none;fillColor=none;align=left;verticalAlign=top;spacingLeft=4;spacingRight=4;overflow=hidden;rotatable=0;points=[[0,0.5],[1,0.5]];portConstraint=eastwest;whiteSpace=wrap;html=1;" parent="IzQ1kHWyZ4dIScxcZV7I-86" vertex="1">
          <mxGeometry y="135" width="125" height="26" as="geometry" />
        </mxCell>
        <mxCell id="IzQ1kHWyZ4dIScxcZV7I-93" value="international" style="text;strokeColor=none;fillColor=none;align=left;verticalAlign=top;spacingLeft=4;spacingRight=4;overflow=hidden;rotatable=0;points=[[0,0.5],[1,0.5]];portConstraint=eastwest;whiteSpace=wrap;html=1;" parent="IzQ1kHWyZ4dIScxcZV7I-86" vertex="1">
          <mxGeometry y="161" width="125" height="26" as="geometry" />
        </mxCell>
        <mxCell id="IzQ1kHWyZ4dIScxcZV7I-97" value="stage" style="text;strokeColor=none;fillColor=none;align=left;verticalAlign=top;spacingLeft=4;spacingRight=4;overflow=hidden;rotatable=0;points=[[0,0.5],[1,0.5]];portConstraint=eastwest;whiteSpace=wrap;html=1;" parent="IzQ1kHWyZ4dIScxcZV7I-86" vertex="1">
          <mxGeometry y="187" width="125" height="26" as="geometry" />
        </mxCell>
        <mxCell id="0EmakBo3mS6fOf4XOf90-3" value="&amp;nbsp; &amp;nbsp; stage_id" style="text;strokeColor=none;fillColor=none;align=left;verticalAlign=top;spacingLeft=4;spacingRight=4;overflow=hidden;rotatable=0;points=[[0,0.5],[1,0.5]];portConstraint=eastwest;whiteSpace=wrap;html=1;" vertex="1" parent="IzQ1kHWyZ4dIScxcZV7I-86">
          <mxGeometry y="213" width="125" height="26" as="geometry" />
        </mxCell>
        <mxCell id="0EmakBo3mS6fOf4XOf90-4" value="&amp;nbsp; &amp;nbsp; stage_name" style="text;strokeColor=none;fillColor=none;align=left;verticalAlign=top;spacingLeft=4;spacingRight=4;overflow=hidden;rotatable=0;points=[[0,0.5],[1,0.5]];portConstraint=eastwest;whiteSpace=wrap;html=1;" vertex="1" parent="IzQ1kHWyZ4dIScxcZV7I-86">
          <mxGeometry y="239" width="125" height="26" as="geometry" />
        </mxCell>
        <mxCell id="0EmakBo3mS6fOf4XOf90-28" style="edgeStyle=orthogonalEdgeStyle;rounded=0;orthogonalLoop=1;jettySize=auto;html=1;exitX=1.016;exitY=-0.164;exitDx=0;exitDy=0;entryX=0.5;entryY=1;entryDx=0;entryDy=0;endArrow=none;endFill=0;startArrow=none;startFill=0;exitPerimeter=0;" edge="1" parent="1" source="ihPTWZ4L9GCANW0JNGpA-1" target="0EmakBo3mS6fOf4XOf90-27">
          <mxGeometry relative="1" as="geometry" />
        </mxCell>
        <mxCell id="sX7GUxveeDLK2bp8o3HS-6" value="Player" style="swimlane;fontStyle=0;childLayout=stackLayout;horizontal=1;startSize=26;fillColor=none;horizontalStack=0;resizeParent=1;resizeParentMax=0;resizeLast=0;collapsible=1;marginBottom=0;whiteSpace=wrap;html=1;" parent="1" vertex="1">
          <mxGeometry x="-296" y="-153.5" width="125" height="130" as="geometry" />
        </mxCell>
        <mxCell id="ihPTWZ4L9GCANW0JNGpA-1" value="&lt;div style=&quot;text-align: center;&quot;&gt;&lt;u&gt;id&lt;/u&gt;&lt;/div&gt;" style="text;strokeColor=none;fillColor=none;align=left;verticalAlign=middle;spacingLeft=4;spacingRight=4;overflow=hidden;rotatable=0;points=[[0,0.5],[1,0.5]];portConstraint=eastwest;whiteSpace=wrap;html=1;" parent="sX7GUxveeDLK2bp8o3HS-6" vertex="1">
          <mxGeometry y="26" width="125" height="26" as="geometry" />
        </mxCell>
        <mxCell id="sX7GUxveeDLK2bp8o3HS-8" value="&lt;div style=&quot;text-align: center;&quot;&gt;name&lt;/div&gt;" style="text;strokeColor=none;fillColor=none;align=left;verticalAlign=top;spacingLeft=4;spacingRight=4;overflow=hidden;rotatable=0;points=[[0,0.5],[1,0.5]];portConstraint=eastwest;whiteSpace=wrap;html=1;" parent="sX7GUxveeDLK2bp8o3HS-6" vertex="1">
          <mxGeometry y="52" width="125" height="26" as="geometry" />
        </mxCell>
        <mxCell id="ihPTWZ4L9GCANW0JNGpA-30" value="&lt;div style=&quot;text-align: center;&quot;&gt;nickname&lt;/div&gt;" style="text;strokeColor=none;fillColor=none;align=left;verticalAlign=top;spacingLeft=4;spacingRight=4;overflow=hidden;rotatable=0;points=[[0,0.5],[1,0.5]];portConstraint=eastwest;whiteSpace=wrap;html=1;" parent="sX7GUxveeDLK2bp8o3HS-6" vertex="1">
          <mxGeometry y="78" width="125" height="26" as="geometry" />
        </mxCell>
        <mxCell id="ihPTWZ4L9GCANW0JNGpA-17" value="&lt;div style=&quot;text-align: center;&quot;&gt;{jersey_number}&lt;/div&gt;" style="text;strokeColor=none;fillColor=none;align=left;verticalAlign=top;spacingLeft=4;spacingRight=4;overflow=hidden;rotatable=0;points=[[0,0.5],[1,0.5]];portConstraint=eastwest;whiteSpace=wrap;html=1;" parent="sX7GUxveeDLK2bp8o3HS-6" vertex="1">
          <mxGeometry y="104" width="125" height="26" as="geometry" />
        </mxCell>
        <mxCell id="ihPTWZ4L9GCANW0JNGpA-32" value="" style="edgeStyle=orthogonalEdgeStyle;rounded=0;orthogonalLoop=1;jettySize=auto;html=1;endArrow=none;endFill=0;startArrow=none;startFill=0;exitX=1.013;exitY=0.045;exitDx=0;exitDy=0;exitPerimeter=0;" parent="1" source="sX7GUxveeDLK2bp8o3HS-27" target="ihPTWZ4L9GCANW0JNGpA-31" edge="1">
          <mxGeometry relative="1" as="geometry" />
        </mxCell>
        <mxCell id="sX7GUxveeDLK2bp8o3HS-27" value="Position" style="swimlane;fontStyle=0;childLayout=stackLayout;horizontal=1;startSize=26;fillColor=none;horizontalStack=0;resizeParent=1;resizeParentMax=0;resizeLast=0;collapsible=1;marginBottom=0;whiteSpace=wrap;html=1;" parent="1" vertex="1">
          <mxGeometry x="-455" y="543" width="120" height="234" as="geometry" />
        </mxCell>
        <mxCell id="ihPTWZ4L9GCANW0JNGpA-137" value="&lt;div style=&quot;text-align: center;&quot;&gt;&lt;u&gt;id&lt;/u&gt;&lt;/div&gt;" style="text;strokeColor=none;fillColor=none;align=left;verticalAlign=top;spacingLeft=4;spacingRight=4;overflow=hidden;rotatable=0;points=[[0,0.5],[1,0.5]];portConstraint=eastwest;whiteSpace=wrap;html=1;" parent="sX7GUxveeDLK2bp8o3HS-27" vertex="1">
          <mxGeometry y="26" width="120" height="26" as="geometry" />
        </mxCell>
        <mxCell id="ihPTWZ4L9GCANW0JNGpA-138" value="&lt;div style=&quot;text-align: center;&quot;&gt;name&lt;/div&gt;" style="text;strokeColor=none;fillColor=none;align=left;verticalAlign=top;spacingLeft=4;spacingRight=4;overflow=hidden;rotatable=0;points=[[0,0.5],[1,0.5]];portConstraint=eastwest;whiteSpace=wrap;html=1;" parent="sX7GUxveeDLK2bp8o3HS-27" vertex="1">
          <mxGeometry y="52" width="120" height="26" as="geometry" />
        </mxCell>
        <mxCell id="ihPTWZ4L9GCANW0JNGpA-44" value="&lt;div style=&quot;text-align: center;&quot;&gt;time_from&lt;/div&gt;" style="text;strokeColor=none;fillColor=none;align=left;verticalAlign=top;spacingLeft=4;spacingRight=4;overflow=hidden;rotatable=0;points=[[0,0.5],[1,0.5]];portConstraint=eastwest;whiteSpace=wrap;html=1;" parent="sX7GUxveeDLK2bp8o3HS-27" vertex="1">
          <mxGeometry y="78" width="120" height="26" as="geometry" />
        </mxCell>
        <mxCell id="sX7GUxveeDLK2bp8o3HS-34" value="&lt;div style=&quot;text-align: center;&quot;&gt;time_to&lt;/div&gt;" style="text;strokeColor=none;fillColor=none;align=left;verticalAlign=top;spacingLeft=4;spacingRight=4;overflow=hidden;rotatable=0;points=[[0,0.5],[1,0.5]];portConstraint=eastwest;whiteSpace=wrap;html=1;" parent="sX7GUxveeDLK2bp8o3HS-27" vertex="1">
          <mxGeometry y="104" width="120" height="26" as="geometry" />
        </mxCell>
        <mxCell id="sX7GUxveeDLK2bp8o3HS-35" value="&lt;div style=&quot;text-align: center;&quot;&gt;from_period&lt;/div&gt;" style="text;strokeColor=none;fillColor=none;align=left;verticalAlign=top;spacingLeft=4;spacingRight=4;overflow=hidden;rotatable=0;points=[[0,0.5],[1,0.5]];portConstraint=eastwest;whiteSpace=wrap;html=1;" parent="sX7GUxveeDLK2bp8o3HS-27" vertex="1">
          <mxGeometry y="130" width="120" height="26" as="geometry" />
        </mxCell>
        <mxCell id="sX7GUxveeDLK2bp8o3HS-36" value="&lt;div style=&quot;text-align: center;&quot;&gt;to_period&lt;/div&gt;" style="text;strokeColor=none;fillColor=none;align=left;verticalAlign=top;spacingLeft=4;spacingRight=4;overflow=hidden;rotatable=0;points=[[0,0.5],[1,0.5]];portConstraint=eastwest;whiteSpace=wrap;html=1;" parent="sX7GUxveeDLK2bp8o3HS-27" vertex="1">
          <mxGeometry y="156" width="120" height="26" as="geometry" />
        </mxCell>
        <mxCell id="sX7GUxveeDLK2bp8o3HS-37" value="&lt;div style=&quot;text-align: center;&quot;&gt;start_reason&lt;/div&gt;" style="text;strokeColor=none;fillColor=none;align=left;verticalAlign=top;spacingLeft=4;spacingRight=4;overflow=hidden;rotatable=0;points=[[0,0.5],[1,0.5]];portConstraint=eastwest;whiteSpace=wrap;html=1;" parent="sX7GUxveeDLK2bp8o3HS-27" vertex="1">
          <mxGeometry y="182" width="120" height="26" as="geometry" />
        </mxCell>
        <mxCell id="sX7GUxveeDLK2bp8o3HS-38" value="&lt;div style=&quot;text-align: center;&quot;&gt;end_reason&lt;/div&gt;" style="text;strokeColor=none;fillColor=none;align=left;verticalAlign=top;spacingLeft=4;spacingRight=4;overflow=hidden;rotatable=0;points=[[0,0.5],[1,0.5]];portConstraint=eastwest;whiteSpace=wrap;html=1;" parent="sX7GUxveeDLK2bp8o3HS-27" vertex="1">
          <mxGeometry y="208" width="120" height="26" as="geometry" />
        </mxCell>
        <mxCell id="sX7GUxveeDLK2bp8o3HS-45" value="Card" style="swimlane;fontStyle=0;childLayout=stackLayout;horizontal=1;startSize=26;fillColor=none;horizontalStack=0;resizeParent=1;resizeParentMax=0;resizeLast=0;collapsible=1;marginBottom=0;whiteSpace=wrap;html=1;dashed=1;" parent="1" vertex="1">
          <mxGeometry x="-294.5" y="-510" width="110" height="130" as="geometry" />
        </mxCell>
        <mxCell id="sX7GUxveeDLK2bp8o3HS-50" value="&lt;div style=&quot;text-align: center;&quot;&gt;&lt;u&gt;time&lt;/u&gt;&lt;/div&gt;" style="text;strokeColor=none;fillColor=none;align=left;verticalAlign=top;spacingLeft=4;spacingRight=4;overflow=hidden;rotatable=0;points=[[0,0.5],[1,0.5]];portConstraint=eastwest;whiteSpace=wrap;html=1;fontStyle=0" parent="sX7GUxveeDLK2bp8o3HS-45" vertex="1">
          <mxGeometry y="26" width="110" height="26" as="geometry" />
        </mxCell>
        <mxCell id="ihPTWZ4L9GCANW0JNGpA-40" value="&lt;div style=&quot;text-align: center;&quot;&gt;type&lt;/div&gt;" style="text;strokeColor=none;fillColor=none;align=left;verticalAlign=top;spacingLeft=4;spacingRight=4;overflow=hidden;rotatable=0;points=[[0,0.5],[1,0.5]];portConstraint=eastwest;whiteSpace=wrap;html=1;fontStyle=4" parent="sX7GUxveeDLK2bp8o3HS-45" vertex="1">
          <mxGeometry y="52" width="110" height="26" as="geometry" />
        </mxCell>
        <mxCell id="sX7GUxveeDLK2bp8o3HS-53" value="&lt;div style=&quot;text-align: center;&quot;&gt;&lt;u&gt;match&lt;/u&gt;&lt;/div&gt;" style="text;strokeColor=none;fillColor=none;align=left;verticalAlign=top;spacingLeft=4;spacingRight=4;overflow=hidden;rotatable=0;points=[[0,0.5],[1,0.5]];portConstraint=eastwest;whiteSpace=wrap;html=1;" parent="sX7GUxveeDLK2bp8o3HS-45" vertex="1">
          <mxGeometry y="78" width="110" height="26" as="geometry" />
        </mxCell>
        <mxCell id="0EmakBo3mS6fOf4XOf90-46" value="&lt;div style=&quot;text-align: center;&quot;&gt;reason&lt;/div&gt;" style="text;strokeColor=none;fillColor=none;align=left;verticalAlign=top;spacingLeft=4;spacingRight=4;overflow=hidden;rotatable=0;points=[[0,0.5],[1,0.5]];portConstraint=eastwest;whiteSpace=wrap;html=1;" vertex="1" parent="sX7GUxveeDLK2bp8o3HS-45">
          <mxGeometry y="104" width="110" height="26" as="geometry" />
        </mxCell>
        <mxCell id="ihPTWZ4L9GCANW0JNGpA-7" style="edgeStyle=orthogonalEdgeStyle;rounded=0;orthogonalLoop=1;jettySize=auto;html=1;exitX=0;exitY=0.5;exitDx=0;exitDy=0;endArrow=none;endFill=0;dashed=1;entryX=1.004;entryY=0.08;entryDx=0;entryDy=0;entryPerimeter=0;" parent="1" source="ihPTWZ4L9GCANW0JNGpA-4" edge="1">
          <mxGeometry relative="1" as="geometry">
            <mxPoint x="-170.5" y="-73.5" as="targetPoint" />
          </mxGeometry>
        </mxCell>
        <mxCell id="ihPTWZ4L9GCANW0JNGpA-4" value="has" style="rhombus;whiteSpace=wrap;html=1;fillColor=none;fontStyle=0;startSize=26;" parent="1" vertex="1">
          <mxGeometry x="-77" y="-114.5" width="80" height="80" as="geometry" />
        </mxCell>
        <mxCell id="ihPTWZ4L9GCANW0JNGpA-16" style="edgeStyle=orthogonalEdgeStyle;rounded=0;orthogonalLoop=1;jettySize=auto;html=1;exitX=1;exitY=0.5;exitDx=0;exitDy=0;entryX=-0.02;entryY=0.115;entryDx=0;entryDy=0;endArrow=none;endFill=0;dashed=1;entryPerimeter=0;" parent="1" source="ihPTWZ4L9GCANW0JNGpA-13" target="IzQ1kHWyZ4dIScxcZV7I-23" edge="1">
          <mxGeometry relative="1" as="geometry" />
        </mxCell>
        <mxCell id="ihPTWZ4L9GCANW0JNGpA-13" value="has" style="rhombus;whiteSpace=wrap;html=1;fillColor=none;fontStyle=0;startSize=26;" parent="1" vertex="1">
          <mxGeometry x="266" y="86.5" width="80" height="80" as="geometry" />
        </mxCell>
        <mxCell id="ihPTWZ4L9GCANW0JNGpA-18" value="participates&lt;div&gt;in&lt;/div&gt;" style="rhombus;whiteSpace=wrap;html=1;fillColor=none;fontStyle=0;startSize=26;" parent="1" vertex="1">
          <mxGeometry x="80" y="558" width="80" height="80" as="geometry" />
        </mxCell>
        <mxCell id="ihPTWZ4L9GCANW0JNGpA-23" style="edgeStyle=orthogonalEdgeStyle;rounded=0;orthogonalLoop=1;jettySize=auto;html=1;endArrow=classic;endFill=1;dashed=1;" parent="1" source="ihPTWZ4L9GCANW0JNGpA-21" edge="1">
          <mxGeometry relative="1" as="geometry">
            <mxPoint x="280" y="1051" as="targetPoint" />
          </mxGeometry>
        </mxCell>
        <mxCell id="ihPTWZ4L9GCANW0JNGpA-21" value="hosts" style="rhombus;whiteSpace=wrap;html=1;fillColor=none;fontStyle=0;startSize=26;" parent="1" vertex="1">
          <mxGeometry x="90" y="1011" width="80" height="80" as="geometry" />
        </mxCell>
        <mxCell id="ihPTWZ4L9GCANW0JNGpA-27" value="" style="edgeStyle=orthogonalEdgeStyle;rounded=0;orthogonalLoop=1;jettySize=auto;html=1;endArrow=none;endFill=0;startArrow=none;startFill=0;exitX=0.886;exitY=0.975;exitDx=0;exitDy=0;exitPerimeter=0;" parent="1" target="ihPTWZ4L9GCANW0JNGpA-29" edge="1" source="IzQ1kHWyZ4dIScxcZV7I-66">
          <mxGeometry relative="1" as="geometry">
            <mxPoint x="-20" y="885" as="sourcePoint" />
          </mxGeometry>
        </mxCell>
        <mxCell id="ihPTWZ4L9GCANW0JNGpA-28" style="edgeStyle=orthogonalEdgeStyle;rounded=0;orthogonalLoop=1;jettySize=auto;html=1;entryX=0;entryY=0.5;entryDx=0;entryDy=0;endArrow=classic;endFill=1;dashed=1;" parent="1" source="ihPTWZ4L9GCANW0JNGpA-29" edge="1">
          <mxGeometry relative="1" as="geometry">
            <mxPoint x="280" y="885" as="targetPoint" />
          </mxGeometry>
        </mxCell>
        <mxCell id="ihPTWZ4L9GCANW0JNGpA-29" value="judges" style="rhombus;whiteSpace=wrap;html=1;fillColor=none;fontStyle=0;startSize=26;" parent="1" vertex="1">
          <mxGeometry x="90" y="845" width="80" height="80" as="geometry" />
        </mxCell>
        <mxCell id="ihPTWZ4L9GCANW0JNGpA-31" value="plays in" style="rhombus;whiteSpace=wrap;html=1;fillColor=none;fontStyle=0;startSize=26;" parent="1" vertex="1">
          <mxGeometry x="-275" y="450" width="80" height="80" as="geometry" />
        </mxCell>
        <mxCell id="ihPTWZ4L9GCANW0JNGpA-33" style="edgeStyle=orthogonalEdgeStyle;rounded=0;orthogonalLoop=1;jettySize=auto;html=1;entryX=0.492;entryY=1;entryDx=0;entryDy=0;endArrow=none;endFill=0;entryPerimeter=0;" parent="1" source="ihPTWZ4L9GCANW0JNGpA-31" target="ihPTWZ4L9GCANW0JNGpA-17" edge="1">
          <mxGeometry relative="1" as="geometry" />
        </mxCell>
        <mxCell id="0EmakBo3mS6fOf4XOf90-275" style="edgeStyle=orthogonalEdgeStyle;rounded=0;orthogonalLoop=1;jettySize=auto;html=1;exitX=0;exitY=0.5;exitDx=0;exitDy=0;entryX=1;entryY=0.5;entryDx=0;entryDy=0;endArrow=none;endFill=0;" edge="1" parent="1" source="ihPTWZ4L9GCANW0JNGpA-45" target="sX7GUxveeDLK2bp8o3HS-34">
          <mxGeometry relative="1" as="geometry" />
        </mxCell>
        <mxCell id="ihPTWZ4L9GCANW0JNGpA-45" value="has" style="rhombus;whiteSpace=wrap;html=1;fillColor=none;fontStyle=0;startSize=26;" parent="1" vertex="1">
          <mxGeometry x="-270" y="620" width="80" height="80" as="geometry" />
        </mxCell>
        <mxCell id="ihPTWZ4L9GCANW0JNGpA-46" style="edgeStyle=orthogonalEdgeStyle;rounded=0;orthogonalLoop=1;jettySize=auto;html=1;exitX=0;exitY=0.5;exitDx=0;exitDy=0;endArrow=none;endFill=0;" parent="1" source="IzQ1kHWyZ4dIScxcZV7I-51" target="ihPTWZ4L9GCANW0JNGpA-45" edge="1">
          <mxGeometry relative="1" as="geometry" />
        </mxCell>
        <mxCell id="ihPTWZ4L9GCANW0JNGpA-52" style="edgeStyle=orthogonalEdgeStyle;rounded=0;orthogonalLoop=1;jettySize=auto;html=1;exitX=0.5;exitY=0;exitDx=0;exitDy=0;endArrow=classic;endFill=1;" parent="1" source="ihPTWZ4L9GCANW0JNGpA-50" target="sX7GUxveeDLK2bp8o3HS-45" edge="1">
          <mxGeometry relative="1" as="geometry" />
        </mxCell>
        <mxCell id="ihPTWZ4L9GCANW0JNGpA-50" value="receives" style="rhombus;whiteSpace=wrap;html=1;fillColor=none;fontStyle=0;startSize=26;" parent="1" vertex="1">
          <mxGeometry x="-279.5" y="-302" width="80" height="80" as="geometry" />
        </mxCell>
        <mxCell id="ihPTWZ4L9GCANW0JNGpA-51" style="edgeStyle=orthogonalEdgeStyle;rounded=0;orthogonalLoop=1;jettySize=auto;html=1;exitX=0.448;exitY=-0.05;exitDx=0;exitDy=0;entryX=0.5;entryY=1;entryDx=0;entryDy=0;endArrow=none;endFill=0;dashed=1;exitPerimeter=0;" parent="1" source="sX7GUxveeDLK2bp8o3HS-6" target="ihPTWZ4L9GCANW0JNGpA-50" edge="1">
          <mxGeometry relative="1" as="geometry" />
        </mxCell>
        <mxCell id="ihPTWZ4L9GCANW0JNGpA-56" value="participates&lt;div&gt;in&lt;/div&gt;" style="rhombus;whiteSpace=wrap;html=1;fillColor=none;fontStyle=0;startSize=26;" parent="1" vertex="1">
          <mxGeometry x="266" y="296.5" width="80" height="80" as="geometry" />
        </mxCell>
        <mxCell id="ihPTWZ4L9GCANW0JNGpA-57" style="edgeStyle=orthogonalEdgeStyle;rounded=0;orthogonalLoop=1;jettySize=auto;html=1;exitX=0;exitY=0.5;exitDx=0;exitDy=0;entryX=1;entryY=0.5;entryDx=0;entryDy=0;endArrow=none;endFill=0;startArrow=none;startFill=0;" parent="1" source="IzQ1kHWyZ4dIScxcZV7I-87" target="ihPTWZ4L9GCANW0JNGpA-56" edge="1">
          <mxGeometry relative="1" as="geometry" />
        </mxCell>
        <mxCell id="ihPTWZ4L9GCANW0JNGpA-58" style="edgeStyle=orthogonalEdgeStyle;rounded=0;orthogonalLoop=1;jettySize=auto;html=1;exitX=0;exitY=0.5;exitDx=0;exitDy=0;endArrow=none;endFill=0;entryX=0.836;entryY=1.02;entryDx=0;entryDy=0;entryPerimeter=0;" parent="1" source="ihPTWZ4L9GCANW0JNGpA-56" target="ihPTWZ4L9GCANW0JNGpA-3" edge="1">
          <mxGeometry relative="1" as="geometry">
            <mxPoint x="165" y="250" as="targetPoint" />
          </mxGeometry>
        </mxCell>
        <mxCell id="ihPTWZ4L9GCANW0JNGpA-59" value="has" style="rhombus;whiteSpace=wrap;html=1;fillColor=none;fontStyle=0;startSize=26;" parent="1" vertex="1">
          <mxGeometry x="458" y="748" width="80" height="80" as="geometry" />
        </mxCell>
        <mxCell id="ihPTWZ4L9GCANW0JNGpA-61" style="edgeStyle=orthogonalEdgeStyle;rounded=0;orthogonalLoop=1;jettySize=auto;html=1;exitX=0;exitY=0.5;exitDx=0;exitDy=0;endArrow=none;endFill=0;entryX=1;entryY=0.5;entryDx=0;entryDy=0;" parent="1" source="ihPTWZ4L9GCANW0JNGpA-59" target="IzQ1kHWyZ4dIScxcZV7I-66" edge="1">
          <mxGeometry relative="1" as="geometry">
            <mxPoint x="-20" y="805" as="targetPoint" />
            <Array as="points">
              <mxPoint x="458" y="790" />
              <mxPoint x="-21" y="790" />
            </Array>
          </mxGeometry>
        </mxCell>
        <mxCell id="0EmakBo3mS6fOf4XOf90-284" style="edgeStyle=orthogonalEdgeStyle;rounded=0;orthogonalLoop=1;jettySize=auto;html=1;exitX=0.5;exitY=1;exitDx=0;exitDy=0;entryX=0.75;entryY=0;entryDx=0;entryDy=0;endArrow=none;endFill=0;" edge="1" parent="1" source="ihPTWZ4L9GCANW0JNGpA-124" target="0EmakBo3mS6fOf4XOf90-47">
          <mxGeometry relative="1" as="geometry" />
        </mxCell>
        <mxCell id="ihPTWZ4L9GCANW0JNGpA-124" value="has" style="rhombus;whiteSpace=wrap;html=1;fillColor=none;fontStyle=0;startSize=26;" parent="1" vertex="1">
          <mxGeometry x="-520" y="84" width="80" height="80" as="geometry" />
        </mxCell>
        <mxCell id="ihPTWZ4L9GCANW0JNGpA-125" style="edgeStyle=orthogonalEdgeStyle;rounded=0;orthogonalLoop=1;jettySize=auto;html=1;exitX=1;exitY=0.5;exitDx=0;exitDy=0;entryX=-0.02;entryY=0.212;entryDx=0;entryDy=0;entryPerimeter=0;endArrow=classic;endFill=1;dashed=1;" parent="1" source="ihPTWZ4L9GCANW0JNGpA-124" target="ihPTWZ4L9GCANW0JNGpA-1" edge="1">
          <mxGeometry relative="1" as="geometry" />
        </mxCell>
        <mxCell id="ihPTWZ4L9GCANW0JNGpA-134" style="edgeStyle=orthogonalEdgeStyle;rounded=0;orthogonalLoop=1;jettySize=auto;html=1;exitX=1;exitY=0.5;exitDx=0;exitDy=0;entryX=0;entryY=0.5;entryDx=0;entryDy=0;endArrow=classic;endFill=1;" parent="1" source="ihPTWZ4L9GCANW0JNGpA-130" target="IzQ1kHWyZ4dIScxcZV7I-66" edge="1">
          <mxGeometry relative="1" as="geometry" />
        </mxCell>
        <mxCell id="0EmakBo3mS6fOf4XOf90-289" style="edgeStyle=orthogonalEdgeStyle;rounded=0;orthogonalLoop=1;jettySize=auto;html=1;exitX=0;exitY=0.5;exitDx=0;exitDy=0;entryX=1;entryY=0.5;entryDx=0;entryDy=0;" edge="1" parent="1" source="ihPTWZ4L9GCANW0JNGpA-130" target="0EmakBo3mS6fOf4XOf90-65">
          <mxGeometry relative="1" as="geometry" />
        </mxCell>
        <mxCell id="ihPTWZ4L9GCANW0JNGpA-130" value="has" style="rhombus;whiteSpace=wrap;html=1;fillColor=none;fontStyle=0;startSize=26;" parent="1" vertex="1">
          <mxGeometry x="-497" y="840" width="80" height="80" as="geometry" />
        </mxCell>
        <mxCell id="ihPTWZ4L9GCANW0JNGpA-139" value="dotted line is used to show partial participation" style="text;html=1;align=left;verticalAlign=middle;whiteSpace=wrap;rounded=0;fontStyle=1;fontSize=13;" parent="1" vertex="1">
          <mxGeometry x="48" y="1239" width="312" height="30" as="geometry" />
        </mxCell>
        <mxCell id="0EmakBo3mS6fOf4XOf90-9" style="edgeStyle=orthogonalEdgeStyle;rounded=0;orthogonalLoop=1;jettySize=auto;html=1;exitX=0.5;exitY=0;exitDx=0;exitDy=0;entryX=0.5;entryY=1;entryDx=0;entryDy=0;entryPerimeter=0;" edge="1" parent="1" source="ihPTWZ4L9GCANW0JNGpA-59" target="0EmakBo3mS6fOf4XOf90-4">
          <mxGeometry relative="1" as="geometry" />
        </mxCell>
        <mxCell id="0EmakBo3mS6fOf4XOf90-11" style="edgeStyle=orthogonalEdgeStyle;rounded=0;orthogonalLoop=1;jettySize=auto;html=1;exitX=0.5;exitY=0;exitDx=0;exitDy=0;entryX=0.5;entryY=0.98;entryDx=0;entryDy=0;entryPerimeter=0;endArrow=none;endFill=0;" edge="1" parent="1" source="ihPTWZ4L9GCANW0JNGpA-18" target="ihPTWZ4L9GCANW0JNGpA-3">
          <mxGeometry relative="1" as="geometry">
            <mxPoint x="120" y="250" as="targetPoint" />
          </mxGeometry>
        </mxCell>
        <mxCell id="0EmakBo3mS6fOf4XOf90-12" value="2..2" style="edgeLabel;html=1;align=center;verticalAlign=middle;resizable=0;points=[];" vertex="1" connectable="0" parent="0EmakBo3mS6fOf4XOf90-11">
          <mxGeometry x="0.6558" y="-1" relative="1" as="geometry">
            <mxPoint x="-10" y="-18" as="offset" />
          </mxGeometry>
        </mxCell>
        <mxCell id="0EmakBo3mS6fOf4XOf90-13" value="" style="endArrow=none;html=1;rounded=0;fontStyle=1;fontSize=13;" edge="1" parent="1">
          <mxGeometry width="50" height="50" relative="1" as="geometry">
            <mxPoint y="1281.5" as="sourcePoint" />
            <mxPoint x="40" y="1281.5" as="targetPoint" />
          </mxGeometry>
        </mxCell>
        <mxCell id="0EmakBo3mS6fOf4XOf90-14" value="" style="endArrow=none;html=1;rounded=0;dashed=1;fontStyle=1;fontSize=13;" edge="1" parent="1">
          <mxGeometry width="50" height="50" relative="1" as="geometry">
            <mxPoint x="1" y="1253.5" as="sourcePoint" />
            <mxPoint x="41" y="1253.5" as="targetPoint" />
          </mxGeometry>
        </mxCell>
        <mxCell id="0EmakBo3mS6fOf4XOf90-22" value="Country" style="swimlane;fontStyle=0;childLayout=stackLayout;horizontal=1;startSize=26;fillColor=none;horizontalStack=0;resizeParent=1;resizeParentMax=0;resizeLast=0;collapsible=1;marginBottom=0;whiteSpace=wrap;html=1;" vertex="1" parent="1">
          <mxGeometry x="65" y="-190" width="110" height="76" as="geometry" />
        </mxCell>
        <mxCell id="0EmakBo3mS6fOf4XOf90-23" value="&lt;div style=&quot;text-align: center;&quot;&gt;id&lt;/div&gt;" style="text;strokeColor=none;fillColor=none;align=left;verticalAlign=top;spacingLeft=4;spacingRight=4;overflow=hidden;rotatable=0;points=[[0,0.5],[1,0.5]];portConstraint=eastwest;whiteSpace=wrap;html=1;fontStyle=4" vertex="1" parent="0EmakBo3mS6fOf4XOf90-22">
          <mxGeometry y="26" width="110" height="24" as="geometry" />
        </mxCell>
        <mxCell id="0EmakBo3mS6fOf4XOf90-26" value="&lt;div style=&quot;text-align: center;&quot;&gt;name&lt;/div&gt;" style="text;strokeColor=none;fillColor=none;align=left;verticalAlign=top;spacingLeft=4;spacingRight=4;overflow=hidden;rotatable=0;points=[[0,0.5],[1,0.5]];portConstraint=eastwest;whiteSpace=wrap;html=1;" vertex="1" parent="0EmakBo3mS6fOf4XOf90-22">
          <mxGeometry y="50" width="110" height="26" as="geometry" />
        </mxCell>
        <mxCell id="0EmakBo3mS6fOf4XOf90-27" value="has" style="rhombus;whiteSpace=wrap;html=1;fillColor=none;fontStyle=0;startSize=26;" vertex="1" parent="1">
          <mxGeometry x="-90" y="-302" width="80" height="80" as="geometry" />
        </mxCell>
        <mxCell id="0EmakBo3mS6fOf4XOf90-29" style="edgeStyle=orthogonalEdgeStyle;rounded=0;orthogonalLoop=1;jettySize=auto;html=1;exitX=0.5;exitY=0;exitDx=0;exitDy=0;entryX=0.34;entryY=-0.053;entryDx=0;entryDy=0;entryPerimeter=0;dashed=1;" edge="1" parent="1" source="0EmakBo3mS6fOf4XOf90-27" target="0EmakBo3mS6fOf4XOf90-22">
          <mxGeometry relative="1" as="geometry" />
        </mxCell>
        <mxCell id="0EmakBo3mS6fOf4XOf90-32" style="edgeStyle=orthogonalEdgeStyle;rounded=0;orthogonalLoop=1;jettySize=auto;html=1;exitX=0.5;exitY=1;exitDx=0;exitDy=0;entryX=0.5;entryY=0;entryDx=0;entryDy=0;endArrow=none;endFill=0;" edge="1" parent="1" source="0EmakBo3mS6fOf4XOf90-30" target="IzQ1kHWyZ4dIScxcZV7I-27">
          <mxGeometry relative="1" as="geometry" />
        </mxCell>
        <mxCell id="0EmakBo3mS6fOf4XOf90-30" value="has" style="rhombus;whiteSpace=wrap;html=1;fillColor=none;fontStyle=0;startSize=26;" vertex="1" parent="1">
          <mxGeometry x="80" y="-80" width="80" height="80" as="geometry" />
        </mxCell>
        <mxCell id="0EmakBo3mS6fOf4XOf90-31" style="edgeStyle=orthogonalEdgeStyle;rounded=0;orthogonalLoop=1;jettySize=auto;html=1;exitX=0.5;exitY=0;exitDx=0;exitDy=0;entryX=0.505;entryY=1.058;entryDx=0;entryDy=0;entryPerimeter=0;dashed=1;" edge="1" parent="1" source="0EmakBo3mS6fOf4XOf90-30" target="0EmakBo3mS6fOf4XOf90-26">
          <mxGeometry relative="1" as="geometry" />
        </mxCell>
        <mxCell id="0EmakBo3mS6fOf4XOf90-35" style="edgeStyle=orthogonalEdgeStyle;rounded=0;orthogonalLoop=1;jettySize=auto;html=1;exitX=0.5;exitY=0;exitDx=0;exitDy=0;entryX=1;entryY=0.5;entryDx=0;entryDy=0;dashed=1;" edge="1" parent="1" source="0EmakBo3mS6fOf4XOf90-33" target="0EmakBo3mS6fOf4XOf90-26">
          <mxGeometry relative="1" as="geometry" />
        </mxCell>
        <mxCell id="0EmakBo3mS6fOf4XOf90-33" value="has" style="rhombus;whiteSpace=wrap;html=1;fillColor=none;fontStyle=0;startSize=26;" vertex="1" parent="1">
          <mxGeometry x="458" y="-90" width="80" height="80" as="geometry" />
        </mxCell>
        <mxCell id="0EmakBo3mS6fOf4XOf90-36" value="has" style="rhombus;whiteSpace=wrap;html=1;fillColor=none;fontStyle=0;startSize=26;" vertex="1" parent="1">
          <mxGeometry x="601" y="84" width="80" height="80" as="geometry" />
        </mxCell>
        <mxCell id="0EmakBo3mS6fOf4XOf90-37" style="edgeStyle=orthogonalEdgeStyle;rounded=0;orthogonalLoop=1;jettySize=auto;html=1;exitX=1;exitY=0.5;exitDx=0;exitDy=0;entryX=0.5;entryY=1;entryDx=0;entryDy=0;endArrow=none;endFill=0;" edge="1" parent="1" source="IzQ1kHWyZ4dIScxcZV7I-87" target="0EmakBo3mS6fOf4XOf90-36">
          <mxGeometry relative="1" as="geometry" />
        </mxCell>
        <mxCell id="0EmakBo3mS6fOf4XOf90-38" style="edgeStyle=orthogonalEdgeStyle;rounded=0;orthogonalLoop=1;jettySize=auto;html=1;exitX=0.5;exitY=0;exitDx=0;exitDy=0;entryX=1.014;entryY=0.875;entryDx=0;entryDy=0;entryPerimeter=0;dashed=1;" edge="1" parent="1" source="0EmakBo3mS6fOf4XOf90-36" target="0EmakBo3mS6fOf4XOf90-23">
          <mxGeometry relative="1" as="geometry" />
        </mxCell>
        <mxCell id="0EmakBo3mS6fOf4XOf90-42" style="edgeStyle=orthogonalEdgeStyle;rounded=0;orthogonalLoop=1;jettySize=auto;html=1;exitX=0.5;exitY=0;exitDx=0;exitDy=0;entryX=1;entryY=0.5;entryDx=0;entryDy=0;dashed=1;" edge="1" parent="1" source="0EmakBo3mS6fOf4XOf90-39" target="0EmakBo3mS6fOf4XOf90-23">
          <mxGeometry relative="1" as="geometry" />
        </mxCell>
        <mxCell id="0EmakBo3mS6fOf4XOf90-39" value="has" style="rhombus;whiteSpace=wrap;html=1;fillColor=none;fontStyle=0;startSize=26;" vertex="1" parent="1">
          <mxGeometry x="677" y="862" width="80" height="80" as="geometry" />
        </mxCell>
        <mxCell id="0EmakBo3mS6fOf4XOf90-41" style="edgeStyle=orthogonalEdgeStyle;rounded=0;orthogonalLoop=1;jettySize=auto;html=1;exitX=1;exitY=0.5;exitDx=0;exitDy=0;entryX=0;entryY=0.5;entryDx=0;entryDy=0;endArrow=none;endFill=0;" edge="1" parent="1" source="IzQ1kHWyZ4dIScxcZV7I-7" target="0EmakBo3mS6fOf4XOf90-39">
          <mxGeometry relative="1" as="geometry" />
        </mxCell>
        <mxCell id="0EmakBo3mS6fOf4XOf90-43" value="has" style="rhombus;whiteSpace=wrap;html=1;fillColor=none;fontStyle=0;startSize=26;" vertex="1" parent="1">
          <mxGeometry x="757" y="1023" width="80" height="80" as="geometry" />
        </mxCell>
        <mxCell id="0EmakBo3mS6fOf4XOf90-44" style="edgeStyle=orthogonalEdgeStyle;rounded=0;orthogonalLoop=1;jettySize=auto;html=1;exitX=1;exitY=0.5;exitDx=0;exitDy=0;entryX=0;entryY=0.5;entryDx=0;entryDy=0;endArrow=none;endFill=0;" edge="1" parent="1" source="IzQ1kHWyZ4dIScxcZV7I-11">
          <mxGeometry relative="1" as="geometry">
            <mxPoint x="757" y="1062" as="targetPoint" />
          </mxGeometry>
        </mxCell>
        <mxCell id="0EmakBo3mS6fOf4XOf90-45" style="edgeStyle=orthogonalEdgeStyle;rounded=0;orthogonalLoop=1;jettySize=auto;html=1;exitX=0.5;exitY=0;exitDx=0;exitDy=0;entryX=1.005;entryY=0.118;entryDx=0;entryDy=0;entryPerimeter=0;dashed=1;" edge="1" parent="1" source="0EmakBo3mS6fOf4XOf90-43" target="0EmakBo3mS6fOf4XOf90-22">
          <mxGeometry relative="1" as="geometry" />
        </mxCell>
        <mxCell id="0EmakBo3mS6fOf4XOf90-299" style="edgeStyle=orthogonalEdgeStyle;rounded=0;orthogonalLoop=1;jettySize=auto;html=1;exitX=0.25;exitY=0;exitDx=0;exitDy=0;entryX=0.5;entryY=1;entryDx=0;entryDy=0;endArrow=none;endFill=0;dashed=1;startArrow=classic;startFill=1;" edge="1" parent="1" source="0EmakBo3mS6fOf4XOf90-47" target="0EmakBo3mS6fOf4XOf90-297">
          <mxGeometry relative="1" as="geometry" />
        </mxCell>
        <mxCell id="0EmakBo3mS6fOf4XOf90-47" value="Shared Event Attributes" style="swimlane;fontStyle=0;childLayout=stackLayout;horizontal=1;startSize=26;fillColor=none;horizontalStack=0;resizeParent=1;resizeParentMax=0;resizeLast=0;collapsible=1;marginBottom=0;whiteSpace=wrap;html=1;" vertex="1" parent="1">
          <mxGeometry x="-930" y="414.5" width="155" height="363" as="geometry" />
        </mxCell>
        <mxCell id="0EmakBo3mS6fOf4XOf90-52" value="&lt;div style=&quot;text-align: center;&quot;&gt;&lt;u&gt;id&lt;/u&gt;&lt;/div&gt;" style="text;strokeColor=none;fillColor=none;align=left;verticalAlign=middle;spacingLeft=4;spacingRight=4;overflow=hidden;rotatable=0;points=[[0,0.5],[1,0.5]];portConstraint=eastwest;whiteSpace=wrap;html=1;" vertex="1" parent="0EmakBo3mS6fOf4XOf90-47">
          <mxGeometry y="26" width="155" height="25" as="geometry" />
        </mxCell>
        <mxCell id="0EmakBo3mS6fOf4XOf90-313" value="&lt;div style=&quot;text-align: center;&quot;&gt;{related events}&lt;/div&gt;" style="text;strokeColor=none;fillColor=none;align=left;verticalAlign=top;spacingLeft=4;spacingRight=4;overflow=hidden;rotatable=0;points=[[0,0.5],[1,0.5]];portConstraint=eastwest;whiteSpace=wrap;html=1;" vertex="1" parent="0EmakBo3mS6fOf4XOf90-47">
          <mxGeometry y="51" width="155" height="26" as="geometry" />
        </mxCell>
        <mxCell id="0EmakBo3mS6fOf4XOf90-49" value="&lt;div style=&quot;text-align: center;&quot;&gt;index&lt;/div&gt;" style="text;strokeColor=none;fillColor=none;align=left;verticalAlign=top;spacingLeft=4;spacingRight=4;overflow=hidden;rotatable=0;points=[[0,0.5],[1,0.5]];portConstraint=eastwest;whiteSpace=wrap;html=1;" vertex="1" parent="0EmakBo3mS6fOf4XOf90-47">
          <mxGeometry y="77" width="155" height="26" as="geometry" />
        </mxCell>
        <mxCell id="0EmakBo3mS6fOf4XOf90-53" value="period" style="text;strokeColor=none;fillColor=none;align=left;verticalAlign=top;spacingLeft=4;spacingRight=4;overflow=hidden;rotatable=0;points=[[0,0.5],[1,0.5]];portConstraint=eastwest;whiteSpace=wrap;html=1;" vertex="1" parent="0EmakBo3mS6fOf4XOf90-47">
          <mxGeometry y="103" width="155" height="26" as="geometry" />
        </mxCell>
        <mxCell id="0EmakBo3mS6fOf4XOf90-57" value="minute" style="text;strokeColor=none;fillColor=none;align=left;verticalAlign=top;spacingLeft=4;spacingRight=4;overflow=hidden;rotatable=0;points=[[0,0.5],[1,0.5]];portConstraint=eastwest;whiteSpace=wrap;html=1;" vertex="1" parent="0EmakBo3mS6fOf4XOf90-47">
          <mxGeometry y="129" width="155" height="26" as="geometry" />
        </mxCell>
        <mxCell id="0EmakBo3mS6fOf4XOf90-58" value="second" style="text;strokeColor=none;fillColor=none;align=left;verticalAlign=top;spacingLeft=4;spacingRight=4;overflow=hidden;rotatable=0;points=[[0,0.5],[1,0.5]];portConstraint=eastwest;whiteSpace=wrap;html=1;" vertex="1" parent="0EmakBo3mS6fOf4XOf90-47">
          <mxGeometry y="155" width="155" height="26" as="geometry" />
        </mxCell>
        <mxCell id="0EmakBo3mS6fOf4XOf90-59" value="possession_count" style="text;strokeColor=none;fillColor=none;align=left;verticalAlign=top;spacingLeft=4;spacingRight=4;overflow=hidden;rotatable=0;points=[[0,0.5],[1,0.5]];portConstraint=eastwest;whiteSpace=wrap;html=1;" vertex="1" parent="0EmakBo3mS6fOf4XOf90-47">
          <mxGeometry y="181" width="155" height="26" as="geometry" />
        </mxCell>
        <mxCell id="0EmakBo3mS6fOf4XOf90-62" value="duration" style="text;strokeColor=none;fillColor=none;align=left;verticalAlign=top;spacingLeft=4;spacingRight=4;overflow=hidden;rotatable=0;points=[[0,0.5],[1,0.5]];portConstraint=eastwest;whiteSpace=wrap;html=1;" vertex="1" parent="0EmakBo3mS6fOf4XOf90-47">
          <mxGeometry y="207" width="155" height="26" as="geometry" />
        </mxCell>
        <mxCell id="0EmakBo3mS6fOf4XOf90-130" value="location" style="text;strokeColor=none;fillColor=none;align=left;verticalAlign=top;spacingLeft=4;spacingRight=4;overflow=hidden;rotatable=0;points=[[0,0.5],[1,0.5]];portConstraint=eastwest;whiteSpace=wrap;html=1;" vertex="1" parent="0EmakBo3mS6fOf4XOf90-47">
          <mxGeometry y="233" width="155" height="26" as="geometry" />
        </mxCell>
        <mxCell id="0EmakBo3mS6fOf4XOf90-131" value="&amp;nbsp; &amp;nbsp; &amp;nbsp;location_y" style="text;strokeColor=none;fillColor=none;align=left;verticalAlign=top;spacingLeft=4;spacingRight=4;overflow=hidden;rotatable=0;points=[[0,0.5],[1,0.5]];portConstraint=eastwest;whiteSpace=wrap;html=1;" vertex="1" parent="0EmakBo3mS6fOf4XOf90-47">
          <mxGeometry y="259" width="155" height="26" as="geometry" />
        </mxCell>
        <mxCell id="0EmakBo3mS6fOf4XOf90-276" value="&amp;nbsp; &amp;nbsp; &amp;nbsp;location_x" style="text;strokeColor=none;fillColor=none;align=left;verticalAlign=top;spacingLeft=4;spacingRight=4;overflow=hidden;rotatable=0;points=[[0,0.5],[1,0.5]];portConstraint=eastwest;whiteSpace=wrap;html=1;" vertex="1" parent="0EmakBo3mS6fOf4XOf90-47">
          <mxGeometry y="285" width="155" height="26" as="geometry" />
        </mxCell>
        <mxCell id="0EmakBo3mS6fOf4XOf90-64" value="under_pressure" style="text;strokeColor=none;fillColor=none;align=left;verticalAlign=top;spacingLeft=4;spacingRight=4;overflow=hidden;rotatable=0;points=[[0,0.5],[1,0.5]];portConstraint=eastwest;whiteSpace=wrap;html=1;" vertex="1" parent="0EmakBo3mS6fOf4XOf90-47">
          <mxGeometry y="311" width="155" height="26" as="geometry" />
        </mxCell>
        <mxCell id="0EmakBo3mS6fOf4XOf90-65" value="counterpress" style="text;strokeColor=none;fillColor=none;align=left;verticalAlign=top;spacingLeft=4;spacingRight=4;overflow=hidden;rotatable=0;points=[[0,0.5],[1,0.5]];portConstraint=eastwest;whiteSpace=wrap;html=1;" vertex="1" parent="0EmakBo3mS6fOf4XOf90-47">
          <mxGeometry y="337" width="155" height="26" as="geometry" />
        </mxCell>
        <mxCell id="0EmakBo3mS6fOf4XOf90-71" value="Pass" style="swimlane;fontStyle=0;childLayout=stackLayout;horizontal=1;startSize=26;fillColor=none;horizontalStack=0;resizeParent=1;resizeParentMax=0;resizeLast=0;collapsible=1;marginBottom=0;whiteSpace=wrap;html=1;" vertex="1" parent="1">
          <mxGeometry x="-1031.5" y="1060" width="155" height="390" as="geometry" />
        </mxCell>
        <mxCell id="0EmakBo3mS6fOf4XOf90-91" value="pass_length" style="text;strokeColor=none;fillColor=none;align=left;verticalAlign=top;spacingLeft=4;spacingRight=4;overflow=hidden;rotatable=0;points=[[0,0.5],[1,0.5]];portConstraint=eastwest;whiteSpace=wrap;html=1;" vertex="1" parent="0EmakBo3mS6fOf4XOf90-71">
          <mxGeometry y="26" width="155" height="26" as="geometry" />
        </mxCell>
        <mxCell id="0EmakBo3mS6fOf4XOf90-92" value="pass_angle" style="text;strokeColor=none;fillColor=none;align=left;verticalAlign=top;spacingLeft=4;spacingRight=4;overflow=hidden;rotatable=0;points=[[0,0.5],[1,0.5]];portConstraint=eastwest;whiteSpace=wrap;html=1;" vertex="1" parent="0EmakBo3mS6fOf4XOf90-71">
          <mxGeometry y="52" width="155" height="26" as="geometry" />
        </mxCell>
        <mxCell id="0EmakBo3mS6fOf4XOf90-94" value="body_part_id" style="text;strokeColor=none;fillColor=none;align=left;verticalAlign=top;spacingLeft=4;spacingRight=4;overflow=hidden;rotatable=0;points=[[0,0.5],[1,0.5]];portConstraint=eastwest;whiteSpace=wrap;html=1;" vertex="1" parent="0EmakBo3mS6fOf4XOf90-71">
          <mxGeometry y="78" width="155" height="26" as="geometry" />
        </mxCell>
        <mxCell id="0EmakBo3mS6fOf4XOf90-300" value="end_location" style="text;strokeColor=none;fillColor=none;align=left;verticalAlign=top;spacingLeft=4;spacingRight=4;overflow=hidden;rotatable=0;points=[[0,0.5],[1,0.5]];portConstraint=eastwest;whiteSpace=wrap;html=1;" vertex="1" parent="0EmakBo3mS6fOf4XOf90-71">
          <mxGeometry y="104" width="155" height="26" as="geometry" />
        </mxCell>
        <mxCell id="0EmakBo3mS6fOf4XOf90-303" value="&amp;nbsp; &amp;nbsp; end_location_z" style="text;strokeColor=none;fillColor=none;align=left;verticalAlign=top;spacingLeft=4;spacingRight=4;overflow=hidden;rotatable=0;points=[[0,0.5],[1,0.5]];portConstraint=eastwest;whiteSpace=wrap;html=1;" vertex="1" parent="0EmakBo3mS6fOf4XOf90-71">
          <mxGeometry y="130" width="155" height="26" as="geometry" />
        </mxCell>
        <mxCell id="0EmakBo3mS6fOf4XOf90-302" value="&amp;nbsp; &amp;nbsp; end_location_y" style="text;strokeColor=none;fillColor=none;align=left;verticalAlign=top;spacingLeft=4;spacingRight=4;overflow=hidden;rotatable=0;points=[[0,0.5],[1,0.5]];portConstraint=eastwest;whiteSpace=wrap;html=1;" vertex="1" parent="0EmakBo3mS6fOf4XOf90-71">
          <mxGeometry y="156" width="155" height="26" as="geometry" />
        </mxCell>
        <mxCell id="0EmakBo3mS6fOf4XOf90-98" value="backheel" style="text;strokeColor=none;fillColor=none;align=left;verticalAlign=top;spacingLeft=4;spacingRight=4;overflow=hidden;rotatable=0;points=[[0,0.5],[1,0.5]];portConstraint=eastwest;whiteSpace=wrap;html=1;" vertex="1" parent="0EmakBo3mS6fOf4XOf90-71">
          <mxGeometry y="182" width="155" height="26" as="geometry" />
        </mxCell>
        <mxCell id="0EmakBo3mS6fOf4XOf90-99" value="deflected" style="text;strokeColor=none;fillColor=none;align=left;verticalAlign=top;spacingLeft=4;spacingRight=4;overflow=hidden;rotatable=0;points=[[0,0.5],[1,0.5]];portConstraint=eastwest;whiteSpace=wrap;html=1;" vertex="1" parent="0EmakBo3mS6fOf4XOf90-71">
          <mxGeometry y="208" width="155" height="26" as="geometry" />
        </mxCell>
        <mxCell id="0EmakBo3mS6fOf4XOf90-101" value="miscommunication" style="text;strokeColor=none;fillColor=none;align=left;verticalAlign=top;spacingLeft=4;spacingRight=4;overflow=hidden;rotatable=0;points=[[0,0.5],[1,0.5]];portConstraint=eastwest;whiteSpace=wrap;html=1;" vertex="1" parent="0EmakBo3mS6fOf4XOf90-71">
          <mxGeometry y="234" width="155" height="26" as="geometry" />
        </mxCell>
        <mxCell id="0EmakBo3mS6fOf4XOf90-102" value="is_cross" style="text;strokeColor=none;fillColor=none;align=left;verticalAlign=top;spacingLeft=4;spacingRight=4;overflow=hidden;rotatable=0;points=[[0,0.5],[1,0.5]];portConstraint=eastwest;whiteSpace=wrap;html=1;" vertex="1" parent="0EmakBo3mS6fOf4XOf90-71">
          <mxGeometry y="260" width="155" height="26" as="geometry" />
        </mxCell>
        <mxCell id="0EmakBo3mS6fOf4XOf90-103" value="cut_back" style="text;strokeColor=none;fillColor=none;align=left;verticalAlign=top;spacingLeft=4;spacingRight=4;overflow=hidden;rotatable=0;points=[[0,0.5],[1,0.5]];portConstraint=eastwest;whiteSpace=wrap;html=1;" vertex="1" parent="0EmakBo3mS6fOf4XOf90-71">
          <mxGeometry y="286" width="155" height="26" as="geometry" />
        </mxCell>
        <mxCell id="0EmakBo3mS6fOf4XOf90-104" value="switch" style="text;strokeColor=none;fillColor=none;align=left;verticalAlign=top;spacingLeft=4;spacingRight=4;overflow=hidden;rotatable=0;points=[[0,0.5],[1,0.5]];portConstraint=eastwest;whiteSpace=wrap;html=1;" vertex="1" parent="0EmakBo3mS6fOf4XOf90-71">
          <mxGeometry y="312" width="155" height="26" as="geometry" />
        </mxCell>
        <mxCell id="0EmakBo3mS6fOf4XOf90-105" value="shot_assist" style="text;strokeColor=none;fillColor=none;align=left;verticalAlign=top;spacingLeft=4;spacingRight=4;overflow=hidden;rotatable=0;points=[[0,0.5],[1,0.5]];portConstraint=eastwest;whiteSpace=wrap;html=1;" vertex="1" parent="0EmakBo3mS6fOf4XOf90-71">
          <mxGeometry y="338" width="155" height="26" as="geometry" />
        </mxCell>
        <mxCell id="0EmakBo3mS6fOf4XOf90-106" value="goal_assist" style="text;strokeColor=none;fillColor=none;align=left;verticalAlign=top;spacingLeft=4;spacingRight=4;overflow=hidden;rotatable=0;points=[[0,0.5],[1,0.5]];portConstraint=eastwest;whiteSpace=wrap;html=1;" vertex="1" parent="0EmakBo3mS6fOf4XOf90-71">
          <mxGeometry y="364" width="155" height="26" as="geometry" />
        </mxCell>
        <mxCell id="0EmakBo3mS6fOf4XOf90-109" value="Duel" style="swimlane;fontStyle=0;childLayout=stackLayout;horizontal=1;startSize=26;fillColor=none;horizontalStack=0;resizeParent=1;resizeParentMax=0;resizeLast=0;collapsible=1;marginBottom=0;whiteSpace=wrap;html=1;" vertex="1" parent="1">
          <mxGeometry x="-1670" y="1079" width="120" height="130" as="geometry" />
        </mxCell>
        <mxCell id="0EmakBo3mS6fOf4XOf90-110" value="&lt;div style=&quot;text-align: center;&quot;&gt;&lt;u&gt;id&lt;/u&gt;&lt;/div&gt;" style="text;strokeColor=none;fillColor=none;align=left;verticalAlign=top;spacingLeft=4;spacingRight=4;overflow=hidden;rotatable=0;points=[[0,0.5],[1,0.5]];portConstraint=eastwest;whiteSpace=wrap;html=1;" vertex="1" parent="0EmakBo3mS6fOf4XOf90-109">
          <mxGeometry y="26" width="120" height="26" as="geometry" />
        </mxCell>
        <mxCell id="0EmakBo3mS6fOf4XOf90-362" value="&lt;div style=&quot;text-align: center;&quot;&gt;duel_type&lt;/div&gt;" style="text;strokeColor=none;fillColor=none;align=left;verticalAlign=top;spacingLeft=4;spacingRight=4;overflow=hidden;rotatable=0;points=[[0,0.5],[1,0.5]];portConstraint=eastwest;whiteSpace=wrap;html=1;" vertex="1" parent="0EmakBo3mS6fOf4XOf90-109">
          <mxGeometry y="52" width="120" height="26" as="geometry" />
        </mxCell>
        <mxCell id="0EmakBo3mS6fOf4XOf90-112" value="&lt;div style=&quot;text-align: center;&quot;&gt;&amp;nbsp; &amp;nbsp; id&lt;/div&gt;" style="text;strokeColor=none;fillColor=none;align=left;verticalAlign=top;spacingLeft=4;spacingRight=4;overflow=hidden;rotatable=0;points=[[0,0.5],[1,0.5]];portConstraint=eastwest;whiteSpace=wrap;html=1;" vertex="1" parent="0EmakBo3mS6fOf4XOf90-109">
          <mxGeometry y="78" width="120" height="26" as="geometry" />
        </mxCell>
        <mxCell id="0EmakBo3mS6fOf4XOf90-113" value="&lt;div style=&quot;text-align: center;&quot;&gt;&amp;nbsp; &amp;nbsp; name&lt;/div&gt;" style="text;strokeColor=none;fillColor=none;align=left;verticalAlign=top;spacingLeft=4;spacingRight=4;overflow=hidden;rotatable=0;points=[[0,0.5],[1,0.5]];portConstraint=eastwest;whiteSpace=wrap;html=1;" vertex="1" parent="0EmakBo3mS6fOf4XOf90-109">
          <mxGeometry y="104" width="120" height="26" as="geometry" />
        </mxCell>
        <mxCell id="0EmakBo3mS6fOf4XOf90-120" value="Shot" style="swimlane;fontStyle=0;childLayout=stackLayout;horizontal=1;startSize=26;fillColor=none;horizontalStack=0;resizeParent=1;resizeParentMax=0;resizeLast=0;collapsible=1;marginBottom=0;whiteSpace=wrap;html=1;" vertex="1" parent="1">
          <mxGeometry x="-816" y="-160" width="155" height="285" as="geometry" />
        </mxCell>
        <mxCell id="0EmakBo3mS6fOf4XOf90-121" value="&lt;div style=&quot;text-align: center;&quot;&gt;&lt;u&gt;id&lt;/u&gt;&lt;br&gt;&lt;/div&gt;" style="text;strokeColor=none;fillColor=none;align=left;verticalAlign=middle;spacingLeft=4;spacingRight=4;overflow=hidden;rotatable=0;points=[[0,0.5],[1,0.5]];portConstraint=eastwest;whiteSpace=wrap;html=1;" vertex="1" parent="0EmakBo3mS6fOf4XOf90-120">
          <mxGeometry y="26" width="155" height="25" as="geometry" />
        </mxCell>
        <mxCell id="0EmakBo3mS6fOf4XOf90-136" value="aerial_won" style="text;strokeColor=none;fillColor=none;align=left;verticalAlign=top;spacingLeft=4;spacingRight=4;overflow=hidden;rotatable=0;points=[[0,0.5],[1,0.5]];portConstraint=eastwest;whiteSpace=wrap;html=1;" vertex="1" parent="0EmakBo3mS6fOf4XOf90-120">
          <mxGeometry y="51" width="155" height="26" as="geometry" />
        </mxCell>
        <mxCell id="0EmakBo3mS6fOf4XOf90-137" value="follows_dribble" style="text;strokeColor=none;fillColor=none;align=left;verticalAlign=top;spacingLeft=4;spacingRight=4;overflow=hidden;rotatable=0;points=[[0,0.5],[1,0.5]];portConstraint=eastwest;whiteSpace=wrap;html=1;" vertex="1" parent="0EmakBo3mS6fOf4XOf90-120">
          <mxGeometry y="77" width="155" height="26" as="geometry" />
        </mxCell>
        <mxCell id="0EmakBo3mS6fOf4XOf90-138" value="first_time" style="text;strokeColor=none;fillColor=none;align=left;verticalAlign=top;spacingLeft=4;spacingRight=4;overflow=hidden;rotatable=0;points=[[0,0.5],[1,0.5]];portConstraint=eastwest;whiteSpace=wrap;html=1;" vertex="1" parent="0EmakBo3mS6fOf4XOf90-120">
          <mxGeometry y="103" width="155" height="26" as="geometry" />
        </mxCell>
        <mxCell id="0EmakBo3mS6fOf4XOf90-141" value="end_location" style="text;strokeColor=none;fillColor=none;align=left;verticalAlign=top;spacingLeft=4;spacingRight=4;overflow=hidden;rotatable=0;points=[[0,0.5],[1,0.5]];portConstraint=eastwest;whiteSpace=wrap;html=1;" vertex="1" parent="0EmakBo3mS6fOf4XOf90-120">
          <mxGeometry y="129" width="155" height="26" as="geometry" />
        </mxCell>
        <mxCell id="0EmakBo3mS6fOf4XOf90-270" value="&amp;nbsp; &amp;nbsp; end_location_x" style="text;strokeColor=none;fillColor=none;align=left;verticalAlign=top;spacingLeft=4;spacingRight=4;overflow=hidden;rotatable=0;points=[[0,0.5],[1,0.5]];portConstraint=eastwest;whiteSpace=wrap;html=1;" vertex="1" parent="0EmakBo3mS6fOf4XOf90-120">
          <mxGeometry y="155" width="155" height="26" as="geometry" />
        </mxCell>
        <mxCell id="0EmakBo3mS6fOf4XOf90-142" value="&amp;nbsp; &amp;nbsp; end_location_y" style="text;strokeColor=none;fillColor=none;align=left;verticalAlign=top;spacingLeft=4;spacingRight=4;overflow=hidden;rotatable=0;points=[[0,0.5],[1,0.5]];portConstraint=eastwest;whiteSpace=wrap;html=1;" vertex="1" parent="0EmakBo3mS6fOf4XOf90-120">
          <mxGeometry y="181" width="155" height="26" as="geometry" />
        </mxCell>
        <mxCell id="0EmakBo3mS6fOf4XOf90-143" value="&amp;nbsp; &amp;nbsp; end_location_z" style="text;strokeColor=none;fillColor=none;align=left;verticalAlign=top;spacingLeft=4;spacingRight=4;overflow=hidden;rotatable=0;points=[[0,0.5],[1,0.5]];portConstraint=eastwest;whiteSpace=wrap;html=1;" vertex="1" parent="0EmakBo3mS6fOf4XOf90-120">
          <mxGeometry y="207" width="155" height="26" as="geometry" />
        </mxCell>
        <mxCell id="0EmakBo3mS6fOf4XOf90-144" value="deflected" style="text;strokeColor=none;fillColor=none;align=left;verticalAlign=top;spacingLeft=4;spacingRight=4;overflow=hidden;rotatable=0;points=[[0,0.5],[1,0.5]];portConstraint=eastwest;whiteSpace=wrap;html=1;" vertex="1" parent="0EmakBo3mS6fOf4XOf90-120">
          <mxGeometry y="233" width="155" height="26" as="geometry" />
        </mxCell>
        <mxCell id="0EmakBo3mS6fOf4XOf90-146" value="statsbomb_xg" style="text;strokeColor=none;fillColor=none;align=left;verticalAlign=top;spacingLeft=4;spacingRight=4;overflow=hidden;rotatable=0;points=[[0,0.5],[1,0.5]];portConstraint=eastwest;whiteSpace=wrap;html=1;" vertex="1" parent="0EmakBo3mS6fOf4XOf90-120">
          <mxGeometry y="259" width="155" height="26" as="geometry" />
        </mxCell>
        <mxCell id="0EmakBo3mS6fOf4XOf90-151" value="Play Pattern" style="swimlane;fontStyle=0;childLayout=stackLayout;horizontal=1;startSize=26;fillColor=none;horizontalStack=0;resizeParent=1;resizeParentMax=0;resizeLast=0;collapsible=1;marginBottom=0;whiteSpace=wrap;html=1;" vertex="1" parent="1">
          <mxGeometry x="-525" y="1051" width="120" height="78" as="geometry" />
        </mxCell>
        <mxCell id="0EmakBo3mS6fOf4XOf90-152" value="&lt;div style=&quot;text-align: center;&quot;&gt;id&lt;br&gt;&lt;/div&gt;" style="text;strokeColor=none;fillColor=none;align=left;verticalAlign=top;spacingLeft=4;spacingRight=4;overflow=hidden;rotatable=0;points=[[0,0.5],[1,0.5]];portConstraint=eastwest;whiteSpace=wrap;html=1;fontStyle=4" vertex="1" parent="0EmakBo3mS6fOf4XOf90-151">
          <mxGeometry y="26" width="120" height="26" as="geometry" />
        </mxCell>
        <mxCell id="0EmakBo3mS6fOf4XOf90-153" value="&lt;div style=&quot;text-align: center;&quot;&gt;name&lt;/div&gt;" style="text;strokeColor=none;fillColor=none;align=left;verticalAlign=top;spacingLeft=4;spacingRight=4;overflow=hidden;rotatable=0;points=[[0,0.5],[1,0.5]];portConstraint=eastwest;whiteSpace=wrap;html=1;" vertex="1" parent="0EmakBo3mS6fOf4XOf90-151">
          <mxGeometry y="52" width="120" height="26" as="geometry" />
        </mxCell>
        <mxCell id="0EmakBo3mS6fOf4XOf90-154" value="Event Outcome" style="swimlane;fontStyle=0;childLayout=stackLayout;horizontal=1;startSize=26;fillColor=none;horizontalStack=0;resizeParent=1;resizeParentMax=0;resizeLast=0;collapsible=1;marginBottom=0;whiteSpace=wrap;html=1;" vertex="1" parent="1">
          <mxGeometry x="-2210" y="714" width="120" height="77" as="geometry" />
        </mxCell>
        <mxCell id="0EmakBo3mS6fOf4XOf90-155" value="&lt;div style=&quot;&quot;&gt;id&lt;br&gt;&lt;/div&gt;" style="text;strokeColor=none;fillColor=none;align=left;verticalAlign=middle;spacingLeft=4;spacingRight=4;overflow=hidden;rotatable=0;points=[[0,0.5],[1,0.5]];portConstraint=eastwest;whiteSpace=wrap;html=1;fontStyle=4" vertex="1" parent="0EmakBo3mS6fOf4XOf90-154">
          <mxGeometry y="26" width="120" height="25" as="geometry" />
        </mxCell>
        <mxCell id="0EmakBo3mS6fOf4XOf90-156" value="&lt;div style=&quot;text-align: center;&quot;&gt;name&lt;/div&gt;" style="text;strokeColor=none;fillColor=none;align=left;verticalAlign=top;spacingLeft=4;spacingRight=4;overflow=hidden;rotatable=0;points=[[0,0.5],[1,0.5]];portConstraint=eastwest;whiteSpace=wrap;html=1;" vertex="1" parent="0EmakBo3mS6fOf4XOf90-154">
          <mxGeometry y="51" width="120" height="26" as="geometry" />
        </mxCell>
        <mxCell id="0EmakBo3mS6fOf4XOf90-157" value="Pass Height" style="swimlane;fontStyle=0;childLayout=stackLayout;horizontal=1;startSize=26;fillColor=none;horizontalStack=0;resizeParent=1;resizeParentMax=0;resizeLast=0;collapsible=1;marginBottom=0;whiteSpace=wrap;html=1;" vertex="1" parent="1">
          <mxGeometry x="-525" y="1232" width="120" height="78" as="geometry" />
        </mxCell>
        <mxCell id="0EmakBo3mS6fOf4XOf90-158" value="&lt;div style=&quot;text-align: center;&quot;&gt;id&lt;br&gt;&lt;/div&gt;" style="text;strokeColor=none;fillColor=none;align=left;verticalAlign=top;spacingLeft=4;spacingRight=4;overflow=hidden;rotatable=0;points=[[0,0.5],[1,0.5]];portConstraint=eastwest;whiteSpace=wrap;html=1;fontStyle=4" vertex="1" parent="0EmakBo3mS6fOf4XOf90-157">
          <mxGeometry y="26" width="120" height="26" as="geometry" />
        </mxCell>
        <mxCell id="0EmakBo3mS6fOf4XOf90-159" value="&lt;div style=&quot;text-align: center;&quot;&gt;name&lt;/div&gt;" style="text;strokeColor=none;fillColor=none;align=left;verticalAlign=top;spacingLeft=4;spacingRight=4;overflow=hidden;rotatable=0;points=[[0,0.5],[1,0.5]];portConstraint=eastwest;whiteSpace=wrap;html=1;" vertex="1" parent="0EmakBo3mS6fOf4XOf90-157">
          <mxGeometry y="52" width="120" height="26" as="geometry" />
        </mxCell>
        <mxCell id="0EmakBo3mS6fOf4XOf90-160" value="Body Part" style="swimlane;fontStyle=0;childLayout=stackLayout;horizontal=1;startSize=26;fillColor=none;horizontalStack=0;resizeParent=1;resizeParentMax=0;resizeLast=0;collapsible=1;marginBottom=0;whiteSpace=wrap;html=1;" vertex="1" parent="1">
          <mxGeometry x="-1019" y="1650" width="120" height="77" as="geometry" />
        </mxCell>
        <mxCell id="0EmakBo3mS6fOf4XOf90-161" value="&lt;div style=&quot;text-align: center;&quot;&gt;id&lt;br&gt;&lt;/div&gt;" style="text;strokeColor=none;fillColor=none;align=left;verticalAlign=middle;spacingLeft=4;spacingRight=4;overflow=hidden;rotatable=0;points=[[0,0.5],[1,0.5]];portConstraint=eastwest;whiteSpace=wrap;html=1;fontStyle=4" vertex="1" parent="0EmakBo3mS6fOf4XOf90-160">
          <mxGeometry y="26" width="120" height="25" as="geometry" />
        </mxCell>
        <mxCell id="0EmakBo3mS6fOf4XOf90-162" value="&lt;div style=&quot;text-align: center;&quot;&gt;name&lt;/div&gt;" style="text;strokeColor=none;fillColor=none;align=left;verticalAlign=top;spacingLeft=4;spacingRight=4;overflow=hidden;rotatable=0;points=[[0,0.5],[1,0.5]];portConstraint=eastwest;whiteSpace=wrap;html=1;" vertex="1" parent="0EmakBo3mS6fOf4XOf90-160">
          <mxGeometry y="51" width="120" height="26" as="geometry" />
        </mxCell>
        <mxCell id="0EmakBo3mS6fOf4XOf90-163" value="Shot Technique" style="swimlane;fontStyle=0;childLayout=stackLayout;horizontal=1;startSize=26;fillColor=none;horizontalStack=0;resizeParent=1;resizeParentMax=0;resizeLast=0;collapsible=1;marginBottom=0;whiteSpace=wrap;html=1;" vertex="1" parent="1">
          <mxGeometry x="-1210" y="-70" width="140" height="93" as="geometry" />
        </mxCell>
        <mxCell id="0EmakBo3mS6fOf4XOf90-164" value="&lt;div style=&quot;text-align: center;&quot;&gt;id&lt;br&gt;&lt;/div&gt;" style="text;strokeColor=none;fillColor=none;align=left;verticalAlign=middle;spacingLeft=4;spacingRight=4;overflow=hidden;rotatable=0;points=[[0,0.5],[1,0.5]];portConstraint=eastwest;whiteSpace=wrap;html=1;fontStyle=4" vertex="1" parent="0EmakBo3mS6fOf4XOf90-163">
          <mxGeometry y="26" width="140" height="41" as="geometry" />
        </mxCell>
        <mxCell id="0EmakBo3mS6fOf4XOf90-165" value="&lt;div style=&quot;text-align: center;&quot;&gt;name&lt;/div&gt;" style="text;strokeColor=none;fillColor=none;align=left;verticalAlign=top;spacingLeft=4;spacingRight=4;overflow=hidden;rotatable=0;points=[[0,0.5],[1,0.5]];portConstraint=eastwest;whiteSpace=wrap;html=1;" vertex="1" parent="0EmakBo3mS6fOf4XOf90-163">
          <mxGeometry y="67" width="140" height="26" as="geometry" />
        </mxCell>
        <mxCell id="0EmakBo3mS6fOf4XOf90-166" value="Pass Type" style="swimlane;fontStyle=0;childLayout=stackLayout;horizontal=1;startSize=26;fillColor=none;horizontalStack=0;resizeParent=1;resizeParentMax=0;resizeLast=0;collapsible=1;marginBottom=0;whiteSpace=wrap;html=1;" vertex="1" parent="1">
          <mxGeometry x="-525" y="1372" width="120" height="78" as="geometry" />
        </mxCell>
        <mxCell id="0EmakBo3mS6fOf4XOf90-167" value="&lt;div style=&quot;text-align: center;&quot;&gt;id&lt;br&gt;&lt;/div&gt;" style="text;strokeColor=none;fillColor=none;align=left;verticalAlign=top;spacingLeft=4;spacingRight=4;overflow=hidden;rotatable=0;points=[[0,0.5],[1,0.5]];portConstraint=eastwest;whiteSpace=wrap;html=1;fontStyle=4" vertex="1" parent="0EmakBo3mS6fOf4XOf90-166">
          <mxGeometry y="26" width="120" height="26" as="geometry" />
        </mxCell>
        <mxCell id="0EmakBo3mS6fOf4XOf90-168" value="&lt;div style=&quot;text-align: center;&quot;&gt;name&lt;/div&gt;" style="text;strokeColor=none;fillColor=none;align=left;verticalAlign=top;spacingLeft=4;spacingRight=4;overflow=hidden;rotatable=0;points=[[0,0.5],[1,0.5]];portConstraint=eastwest;whiteSpace=wrap;html=1;" vertex="1" parent="0EmakBo3mS6fOf4XOf90-166">
          <mxGeometry y="52" width="120" height="26" as="geometry" />
        </mxCell>
        <mxCell id="0EmakBo3mS6fOf4XOf90-169" value="Foul Type" style="swimlane;fontStyle=0;childLayout=stackLayout;horizontal=1;startSize=26;fillColor=none;horizontalStack=0;resizeParent=1;resizeParentMax=0;resizeLast=0;collapsible=1;marginBottom=0;whiteSpace=wrap;html=1;" vertex="1" parent="1">
          <mxGeometry x="-1680" y="105" width="120" height="78" as="geometry" />
        </mxCell>
        <mxCell id="0EmakBo3mS6fOf4XOf90-170" value="&lt;div style=&quot;text-align: center;&quot;&gt;id&lt;br&gt;&lt;/div&gt;" style="text;strokeColor=none;fillColor=none;align=left;verticalAlign=top;spacingLeft=4;spacingRight=4;overflow=hidden;rotatable=0;points=[[0,0.5],[1,0.5]];portConstraint=eastwest;whiteSpace=wrap;html=1;fontStyle=4" vertex="1" parent="0EmakBo3mS6fOf4XOf90-169">
          <mxGeometry y="26" width="120" height="26" as="geometry" />
        </mxCell>
        <mxCell id="0EmakBo3mS6fOf4XOf90-171" value="&lt;div style=&quot;text-align: center;&quot;&gt;name&lt;/div&gt;" style="text;strokeColor=none;fillColor=none;align=left;verticalAlign=top;spacingLeft=4;spacingRight=4;overflow=hidden;rotatable=0;points=[[0,0.5],[1,0.5]];portConstraint=eastwest;whiteSpace=wrap;html=1;" vertex="1" parent="0EmakBo3mS6fOf4XOf90-169">
          <mxGeometry y="52" width="120" height="26" as="geometry" />
        </mxCell>
        <mxCell id="0EmakBo3mS6fOf4XOf90-180" value="Foul Commit" style="swimlane;fontStyle=0;childLayout=stackLayout;horizontal=1;startSize=26;fillColor=none;horizontalStack=0;resizeParent=1;resizeParentMax=0;resizeLast=0;collapsible=1;marginBottom=0;whiteSpace=wrap;html=1;" vertex="1" parent="1">
          <mxGeometry x="-1380" y="105" width="120" height="156" as="geometry" />
        </mxCell>
        <mxCell id="0EmakBo3mS6fOf4XOf90-181" value="&lt;div style=&quot;text-align: center;&quot;&gt;&lt;u&gt;id&lt;/u&gt;&lt;br&gt;&lt;/div&gt;" style="text;strokeColor=none;fillColor=none;align=left;verticalAlign=top;spacingLeft=4;spacingRight=4;overflow=hidden;rotatable=0;points=[[0,0.5],[1,0.5]];portConstraint=eastwest;whiteSpace=wrap;html=1;" vertex="1" parent="0EmakBo3mS6fOf4XOf90-180">
          <mxGeometry y="26" width="120" height="26" as="geometry" />
        </mxCell>
        <mxCell id="0EmakBo3mS6fOf4XOf90-183" value="&lt;div style=&quot;text-align: center;&quot;&gt;offensive&lt;/div&gt;" style="text;strokeColor=none;fillColor=none;align=left;verticalAlign=top;spacingLeft=4;spacingRight=4;overflow=hidden;rotatable=0;points=[[0,0.5],[1,0.5]];portConstraint=eastwest;whiteSpace=wrap;html=1;" vertex="1" parent="0EmakBo3mS6fOf4XOf90-180">
          <mxGeometry y="52" width="120" height="26" as="geometry" />
        </mxCell>
        <mxCell id="0EmakBo3mS6fOf4XOf90-184" value="&lt;div style=&quot;text-align: center;&quot;&gt;advantage&lt;/div&gt;" style="text;strokeColor=none;fillColor=none;align=left;verticalAlign=top;spacingLeft=4;spacingRight=4;overflow=hidden;rotatable=0;points=[[0,0.5],[1,0.5]];portConstraint=eastwest;whiteSpace=wrap;html=1;" vertex="1" parent="0EmakBo3mS6fOf4XOf90-180">
          <mxGeometry y="78" width="120" height="26" as="geometry" />
        </mxCell>
        <mxCell id="0EmakBo3mS6fOf4XOf90-185" value="&lt;div style=&quot;text-align: center;&quot;&gt;penalty&lt;/div&gt;" style="text;strokeColor=none;fillColor=none;align=left;verticalAlign=top;spacingLeft=4;spacingRight=4;overflow=hidden;rotatable=0;points=[[0,0.5],[1,0.5]];portConstraint=eastwest;whiteSpace=wrap;html=1;" vertex="1" parent="0EmakBo3mS6fOf4XOf90-180">
          <mxGeometry y="104" width="120" height="26" as="geometry" />
        </mxCell>
        <mxCell id="0EmakBo3mS6fOf4XOf90-186" value="&lt;div style=&quot;text-align: center;&quot;&gt;card_type&lt;/div&gt;" style="text;strokeColor=none;fillColor=none;align=left;verticalAlign=top;spacingLeft=4;spacingRight=4;overflow=hidden;rotatable=0;points=[[0,0.5],[1,0.5]];portConstraint=eastwest;whiteSpace=wrap;html=1;" vertex="1" parent="0EmakBo3mS6fOf4XOf90-180">
          <mxGeometry y="130" width="120" height="26" as="geometry" />
        </mxCell>
        <mxCell id="0EmakBo3mS6fOf4XOf90-189" value="Foul Won" style="swimlane;fontStyle=0;childLayout=stackLayout;horizontal=1;startSize=26;fillColor=none;horizontalStack=0;resizeParent=1;resizeParentMax=0;resizeLast=0;collapsible=1;marginBottom=0;whiteSpace=wrap;html=1;" vertex="1" parent="1">
          <mxGeometry x="-1680" y="855" width="120" height="130" as="geometry" />
        </mxCell>
        <mxCell id="0EmakBo3mS6fOf4XOf90-190" value="&lt;div style=&quot;text-align: center;&quot;&gt;&lt;u&gt;id&lt;/u&gt;&lt;br&gt;&lt;/div&gt;" style="text;strokeColor=none;fillColor=none;align=left;verticalAlign=top;spacingLeft=4;spacingRight=4;overflow=hidden;rotatable=0;points=[[0,0.5],[1,0.5]];portConstraint=eastwest;whiteSpace=wrap;html=1;" vertex="1" parent="0EmakBo3mS6fOf4XOf90-189">
          <mxGeometry y="26" width="120" height="26" as="geometry" />
        </mxCell>
        <mxCell id="0EmakBo3mS6fOf4XOf90-192" value="&lt;div style=&quot;text-align: center;&quot;&gt;defensive&lt;/div&gt;" style="text;strokeColor=none;fillColor=none;align=left;verticalAlign=top;spacingLeft=4;spacingRight=4;overflow=hidden;rotatable=0;points=[[0,0.5],[1,0.5]];portConstraint=eastwest;whiteSpace=wrap;html=1;" vertex="1" parent="0EmakBo3mS6fOf4XOf90-189">
          <mxGeometry y="52" width="120" height="26" as="geometry" />
        </mxCell>
        <mxCell id="0EmakBo3mS6fOf4XOf90-193" value="&lt;div style=&quot;text-align: center;&quot;&gt;advantage&lt;/div&gt;" style="text;strokeColor=none;fillColor=none;align=left;verticalAlign=top;spacingLeft=4;spacingRight=4;overflow=hidden;rotatable=0;points=[[0,0.5],[1,0.5]];portConstraint=eastwest;whiteSpace=wrap;html=1;" vertex="1" parent="0EmakBo3mS6fOf4XOf90-189">
          <mxGeometry y="78" width="120" height="26" as="geometry" />
        </mxCell>
        <mxCell id="0EmakBo3mS6fOf4XOf90-194" value="&lt;div style=&quot;text-align: center;&quot;&gt;penalty&lt;/div&gt;" style="text;strokeColor=none;fillColor=none;align=left;verticalAlign=top;spacingLeft=4;spacingRight=4;overflow=hidden;rotatable=0;points=[[0,0.5],[1,0.5]];portConstraint=eastwest;whiteSpace=wrap;html=1;" vertex="1" parent="0EmakBo3mS6fOf4XOf90-189">
          <mxGeometry y="104" width="120" height="26" as="geometry" />
        </mxCell>
        <mxCell id="0EmakBo3mS6fOf4XOf90-195" value="Ball Carry" style="swimlane;fontStyle=0;childLayout=stackLayout;horizontal=1;startSize=26;fillColor=none;horizontalStack=0;resizeParent=1;resizeParentMax=0;resizeLast=0;collapsible=1;marginBottom=0;whiteSpace=wrap;html=1;" vertex="1" parent="1">
          <mxGeometry x="-1220" y="100" width="120" height="130" as="geometry" />
        </mxCell>
        <mxCell id="0EmakBo3mS6fOf4XOf90-196" value="&lt;div style=&quot;text-align: center;&quot;&gt;&lt;u&gt;id&lt;/u&gt;&lt;/div&gt;" style="text;strokeColor=none;fillColor=none;align=left;verticalAlign=top;spacingLeft=4;spacingRight=4;overflow=hidden;rotatable=0;points=[[0,0.5],[1,0.5]];portConstraint=eastwest;whiteSpace=wrap;html=1;" vertex="1" parent="0EmakBo3mS6fOf4XOf90-195">
          <mxGeometry y="26" width="120" height="26" as="geometry" />
        </mxCell>
        <mxCell id="0EmakBo3mS6fOf4XOf90-307" value="end_location" style="text;strokeColor=none;fillColor=none;align=left;verticalAlign=top;spacingLeft=4;spacingRight=4;overflow=hidden;rotatable=0;points=[[0,0.5],[1,0.5]];portConstraint=eastwest;whiteSpace=wrap;html=1;" vertex="1" parent="0EmakBo3mS6fOf4XOf90-195">
          <mxGeometry y="52" width="120" height="26" as="geometry" />
        </mxCell>
        <mxCell id="0EmakBo3mS6fOf4XOf90-309" value="&amp;nbsp; &amp;nbsp; end_location_y" style="text;strokeColor=none;fillColor=none;align=left;verticalAlign=top;spacingLeft=4;spacingRight=4;overflow=hidden;rotatable=0;points=[[0,0.5],[1,0.5]];portConstraint=eastwest;whiteSpace=wrap;html=1;" vertex="1" parent="0EmakBo3mS6fOf4XOf90-195">
          <mxGeometry y="78" width="120" height="26" as="geometry" />
        </mxCell>
        <mxCell id="0EmakBo3mS6fOf4XOf90-308" value="&amp;nbsp; &amp;nbsp; end_location_z" style="text;strokeColor=none;fillColor=none;align=left;verticalAlign=top;spacingLeft=4;spacingRight=4;overflow=hidden;rotatable=0;points=[[0,0.5],[1,0.5]];portConstraint=eastwest;whiteSpace=wrap;html=1;" vertex="1" parent="0EmakBo3mS6fOf4XOf90-195">
          <mxGeometry y="104" width="120" height="26" as="geometry" />
        </mxCell>
        <mxCell id="0EmakBo3mS6fOf4XOf90-200" value="Ball Recovery" style="swimlane;fontStyle=0;childLayout=stackLayout;horizontal=1;startSize=26;fillColor=none;horizontalStack=0;resizeParent=1;resizeParentMax=0;resizeLast=0;collapsible=1;marginBottom=0;whiteSpace=wrap;html=1;" vertex="1" parent="1">
          <mxGeometry x="-1680" y="674.5" width="120" height="104" as="geometry" />
        </mxCell>
        <mxCell id="0EmakBo3mS6fOf4XOf90-201" value="&lt;div style=&quot;text-align: center;&quot;&gt;&lt;u&gt;id&lt;/u&gt;&lt;/div&gt;" style="text;strokeColor=none;fillColor=none;align=left;verticalAlign=top;spacingLeft=4;spacingRight=4;overflow=hidden;rotatable=0;points=[[0,0.5],[1,0.5]];portConstraint=eastwest;whiteSpace=wrap;html=1;" vertex="1" parent="0EmakBo3mS6fOf4XOf90-200">
          <mxGeometry y="26" width="120" height="26" as="geometry" />
        </mxCell>
        <mxCell id="0EmakBo3mS6fOf4XOf90-203" value="&lt;div style=&quot;text-align: center;&quot;&gt;recovery_failure&lt;/div&gt;" style="text;strokeColor=none;fillColor=none;align=left;verticalAlign=top;spacingLeft=4;spacingRight=4;overflow=hidden;rotatable=0;points=[[0,0.5],[1,0.5]];portConstraint=eastwest;whiteSpace=wrap;html=1;" vertex="1" parent="0EmakBo3mS6fOf4XOf90-200">
          <mxGeometry y="52" width="120" height="26" as="geometry" />
        </mxCell>
        <mxCell id="0EmakBo3mS6fOf4XOf90-204" value="&lt;div style=&quot;text-align: center;&quot;&gt;offensive&lt;/div&gt;" style="text;strokeColor=none;fillColor=none;align=left;verticalAlign=top;spacingLeft=4;spacingRight=4;overflow=hidden;rotatable=0;points=[[0,0.5],[1,0.5]];portConstraint=eastwest;whiteSpace=wrap;html=1;" vertex="1" parent="0EmakBo3mS6fOf4XOf90-200">
          <mxGeometry y="78" width="120" height="26" as="geometry" />
        </mxCell>
        <mxCell id="0EmakBo3mS6fOf4XOf90-205" value="Block" style="swimlane;fontStyle=0;childLayout=stackLayout;horizontal=1;startSize=26;fillColor=none;horizontalStack=0;resizeParent=1;resizeParentMax=0;resizeLast=0;collapsible=1;marginBottom=0;whiteSpace=wrap;html=1;" vertex="1" parent="1">
          <mxGeometry x="-1680" y="491" width="120" height="130" as="geometry" />
        </mxCell>
        <mxCell id="0EmakBo3mS6fOf4XOf90-206" value="&lt;div style=&quot;text-align: center;&quot;&gt;&lt;u&gt;id&lt;/u&gt;&lt;/div&gt;" style="text;strokeColor=none;fillColor=none;align=left;verticalAlign=top;spacingLeft=4;spacingRight=4;overflow=hidden;rotatable=0;points=[[0,0.5],[1,0.5]];portConstraint=eastwest;whiteSpace=wrap;html=1;" vertex="1" parent="0EmakBo3mS6fOf4XOf90-205">
          <mxGeometry y="26" width="120" height="26" as="geometry" />
        </mxCell>
        <mxCell id="0EmakBo3mS6fOf4XOf90-208" value="&lt;div style=&quot;text-align: center;&quot;&gt;deflection&lt;/div&gt;" style="text;strokeColor=none;fillColor=none;align=left;verticalAlign=top;spacingLeft=4;spacingRight=4;overflow=hidden;rotatable=0;points=[[0,0.5],[1,0.5]];portConstraint=eastwest;whiteSpace=wrap;html=1;" vertex="1" parent="0EmakBo3mS6fOf4XOf90-205">
          <mxGeometry y="52" width="120" height="26" as="geometry" />
        </mxCell>
        <mxCell id="0EmakBo3mS6fOf4XOf90-209" value="&lt;div style=&quot;text-align: center;&quot;&gt;deflection&lt;/div&gt;" style="text;strokeColor=none;fillColor=none;align=left;verticalAlign=top;spacingLeft=4;spacingRight=4;overflow=hidden;rotatable=0;points=[[0,0.5],[1,0.5]];portConstraint=eastwest;whiteSpace=wrap;html=1;" vertex="1" parent="0EmakBo3mS6fOf4XOf90-205">
          <mxGeometry y="78" width="120" height="26" as="geometry" />
        </mxCell>
        <mxCell id="0EmakBo3mS6fOf4XOf90-210" value="&lt;div style=&quot;text-align: center;&quot;&gt;save_block&lt;/div&gt;" style="text;strokeColor=none;fillColor=none;align=left;verticalAlign=top;spacingLeft=4;spacingRight=4;overflow=hidden;rotatable=0;points=[[0,0.5],[1,0.5]];portConstraint=eastwest;whiteSpace=wrap;html=1;" vertex="1" parent="0EmakBo3mS6fOf4XOf90-205">
          <mxGeometry y="104" width="120" height="26" as="geometry" />
        </mxCell>
        <mxCell id="0EmakBo3mS6fOf4XOf90-211" value="Bad Behaviour" style="swimlane;fontStyle=0;childLayout=stackLayout;horizontal=1;startSize=26;fillColor=none;horizontalStack=0;resizeParent=1;resizeParentMax=0;resizeLast=0;collapsible=1;marginBottom=0;whiteSpace=wrap;html=1;" vertex="1" parent="1">
          <mxGeometry x="-1049" y="105" width="120" height="78" as="geometry" />
        </mxCell>
        <mxCell id="0EmakBo3mS6fOf4XOf90-212" value="&lt;div style=&quot;text-align: center;&quot;&gt;&lt;u&gt;id&lt;/u&gt;&lt;br&gt;&lt;/div&gt;" style="text;strokeColor=none;fillColor=none;align=left;verticalAlign=top;spacingLeft=4;spacingRight=4;overflow=hidden;rotatable=0;points=[[0,0.5],[1,0.5]];portConstraint=eastwest;whiteSpace=wrap;html=1;" vertex="1" parent="0EmakBo3mS6fOf4XOf90-211">
          <mxGeometry y="26" width="120" height="26" as="geometry" />
        </mxCell>
        <mxCell id="0EmakBo3mS6fOf4XOf90-214" value="&lt;div style=&quot;text-align: center;&quot;&gt;card_type&lt;/div&gt;" style="text;strokeColor=none;fillColor=none;align=left;verticalAlign=top;spacingLeft=4;spacingRight=4;overflow=hidden;rotatable=0;points=[[0,0.5],[1,0.5]];portConstraint=eastwest;whiteSpace=wrap;html=1;" vertex="1" parent="0EmakBo3mS6fOf4XOf90-211">
          <mxGeometry y="52" width="120" height="26" as="geometry" />
        </mxCell>
        <mxCell id="0EmakBo3mS6fOf4XOf90-220" value="ball_receipts" style="swimlane;fontStyle=0;childLayout=stackLayout;horizontal=1;startSize=26;fillColor=none;horizontalStack=0;resizeParent=1;resizeParentMax=0;resizeLast=0;collapsible=1;marginBottom=0;whiteSpace=wrap;html=1;" vertex="1" parent="1">
          <mxGeometry x="-1960" y="741" width="120" height="78" as="geometry" />
        </mxCell>
        <mxCell id="0EmakBo3mS6fOf4XOf90-221" value="&lt;div style=&quot;text-align: center;&quot;&gt;&lt;u&gt;br_id&lt;/u&gt;&lt;/div&gt;" style="text;strokeColor=none;fillColor=none;align=left;verticalAlign=top;spacingLeft=4;spacingRight=4;overflow=hidden;rotatable=0;points=[[0,0.5],[1,0.5]];portConstraint=eastwest;whiteSpace=wrap;html=1;" vertex="1" parent="0EmakBo3mS6fOf4XOf90-220">
          <mxGeometry y="26" width="120" height="26" as="geometry" />
        </mxCell>
        <mxCell id="0EmakBo3mS6fOf4XOf90-222" value="&lt;div style=&quot;text-align: center;&quot;&gt;event_id&lt;/div&gt;" style="text;strokeColor=none;fillColor=none;align=left;verticalAlign=top;spacingLeft=4;spacingRight=4;overflow=hidden;rotatable=0;points=[[0,0.5],[1,0.5]];portConstraint=eastwest;whiteSpace=wrap;html=1;" vertex="1" parent="0EmakBo3mS6fOf4XOf90-220">
          <mxGeometry y="52" width="120" height="26" as="geometry" />
        </mxCell>
        <mxCell id="0EmakBo3mS6fOf4XOf90-224" value="Clearance" style="swimlane;fontStyle=0;childLayout=stackLayout;horizontal=1;startSize=26;fillColor=none;horizontalStack=0;resizeParent=1;resizeParentMax=0;resizeLast=0;collapsible=1;marginBottom=0;whiteSpace=wrap;html=1;" vertex="1" parent="1">
          <mxGeometry x="-1200" y="1331" width="120" height="78" as="geometry" />
        </mxCell>
        <mxCell id="0EmakBo3mS6fOf4XOf90-225" value="&lt;div style=&quot;text-align: center;&quot;&gt;&lt;u&gt;id&lt;/u&gt;&lt;br&gt;&lt;/div&gt;" style="text;strokeColor=none;fillColor=none;align=left;verticalAlign=top;spacingLeft=4;spacingRight=4;overflow=hidden;rotatable=0;points=[[0,0.5],[1,0.5]];portConstraint=eastwest;whiteSpace=wrap;html=1;" vertex="1" parent="0EmakBo3mS6fOf4XOf90-224">
          <mxGeometry y="26" width="120" height="26" as="geometry" />
        </mxCell>
        <mxCell id="0EmakBo3mS6fOf4XOf90-227" value="&lt;div style=&quot;text-align: center;&quot;&gt;aerial_won&lt;/div&gt;" style="text;strokeColor=none;fillColor=none;align=left;verticalAlign=top;spacingLeft=4;spacingRight=4;overflow=hidden;rotatable=0;points=[[0,0.5],[1,0.5]];portConstraint=eastwest;whiteSpace=wrap;html=1;" vertex="1" parent="0EmakBo3mS6fOf4XOf90-224">
          <mxGeometry y="52" width="120" height="26" as="geometry" />
        </mxCell>
        <mxCell id="0EmakBo3mS6fOf4XOf90-229" value="Interception" style="swimlane;fontStyle=0;childLayout=stackLayout;horizontal=1;startSize=26;fillColor=none;horizontalStack=0;resizeParent=1;resizeParentMax=0;resizeLast=0;collapsible=1;marginBottom=0;whiteSpace=wrap;html=1;" vertex="1" parent="1">
          <mxGeometry x="-1960" y="558" width="120" height="78" as="geometry" />
        </mxCell>
        <mxCell id="0EmakBo3mS6fOf4XOf90-230" value="&lt;div style=&quot;text-align: center;&quot;&gt;&lt;u&gt;id&lt;/u&gt;&lt;/div&gt;" style="text;strokeColor=none;fillColor=none;align=left;verticalAlign=top;spacingLeft=4;spacingRight=4;overflow=hidden;rotatable=0;points=[[0,0.5],[1,0.5]];portConstraint=eastwest;whiteSpace=wrap;html=1;" vertex="1" parent="0EmakBo3mS6fOf4XOf90-229">
          <mxGeometry y="26" width="120" height="26" as="geometry" />
        </mxCell>
        <mxCell id="0EmakBo3mS6fOf4XOf90-231" value="&lt;div style=&quot;text-align: center;&quot;&gt;event_id&lt;/div&gt;" style="text;strokeColor=none;fillColor=none;align=left;verticalAlign=top;spacingLeft=4;spacingRight=4;overflow=hidden;rotatable=0;points=[[0,0.5],[1,0.5]];portConstraint=eastwest;whiteSpace=wrap;html=1;" vertex="1" parent="0EmakBo3mS6fOf4XOf90-229">
          <mxGeometry y="52" width="120" height="26" as="geometry" />
        </mxCell>
        <mxCell id="0EmakBo3mS6fOf4XOf90-233" value="Dribble" style="swimlane;fontStyle=0;childLayout=stackLayout;horizontal=1;startSize=26;fillColor=none;horizontalStack=0;resizeParent=1;resizeParentMax=0;resizeLast=0;collapsible=1;marginBottom=0;whiteSpace=wrap;html=1;" vertex="1" parent="1">
          <mxGeometry x="-1910" y="246.5" width="120" height="130" as="geometry" />
        </mxCell>
        <mxCell id="0EmakBo3mS6fOf4XOf90-234" value="&lt;div style=&quot;text-align: center;&quot;&gt;&lt;u&gt;id&lt;/u&gt;&lt;/div&gt;" style="text;strokeColor=none;fillColor=none;align=left;verticalAlign=top;spacingLeft=4;spacingRight=4;overflow=hidden;rotatable=0;points=[[0,0.5],[1,0.5]];portConstraint=eastwest;whiteSpace=wrap;html=1;" vertex="1" parent="0EmakBo3mS6fOf4XOf90-233">
          <mxGeometry y="26" width="120" height="26" as="geometry" />
        </mxCell>
        <mxCell id="0EmakBo3mS6fOf4XOf90-237" value="&lt;div style=&quot;text-align: center;&quot;&gt;overrun&lt;/div&gt;" style="text;strokeColor=none;fillColor=none;align=left;verticalAlign=top;spacingLeft=4;spacingRight=4;overflow=hidden;rotatable=0;points=[[0,0.5],[1,0.5]];portConstraint=eastwest;whiteSpace=wrap;html=1;" vertex="1" parent="0EmakBo3mS6fOf4XOf90-233">
          <mxGeometry y="52" width="120" height="26" as="geometry" />
        </mxCell>
        <mxCell id="0EmakBo3mS6fOf4XOf90-238" value="&lt;div style=&quot;text-align: center;&quot;&gt;nutmeg&lt;/div&gt;" style="text;strokeColor=none;fillColor=none;align=left;verticalAlign=top;spacingLeft=4;spacingRight=4;overflow=hidden;rotatable=0;points=[[0,0.5],[1,0.5]];portConstraint=eastwest;whiteSpace=wrap;html=1;" vertex="1" parent="0EmakBo3mS6fOf4XOf90-233">
          <mxGeometry y="78" width="120" height="26" as="geometry" />
        </mxCell>
        <mxCell id="0EmakBo3mS6fOf4XOf90-239" value="&lt;div style=&quot;text-align: center;&quot;&gt;no_touch&lt;/div&gt;" style="text;strokeColor=none;fillColor=none;align=left;verticalAlign=top;spacingLeft=4;spacingRight=4;overflow=hidden;rotatable=0;points=[[0,0.5],[1,0.5]];portConstraint=eastwest;whiteSpace=wrap;html=1;" vertex="1" parent="0EmakBo3mS6fOf4XOf90-233">
          <mxGeometry y="104" width="120" height="26" as="geometry" />
        </mxCell>
        <mxCell id="0EmakBo3mS6fOf4XOf90-240" value="Goalkeeper Action" style="swimlane;fontStyle=0;childLayout=stackLayout;horizontal=1;startSize=26;fillColor=none;horizontalStack=0;resizeParent=1;resizeParentMax=0;resizeLast=0;collapsible=1;marginBottom=0;whiteSpace=wrap;html=1;" vertex="1" parent="1">
          <mxGeometry x="-1670" y="1250" width="120" height="130" as="geometry" />
        </mxCell>
        <mxCell id="0EmakBo3mS6fOf4XOf90-241" value="&lt;div style=&quot;text-align: center;&quot;&gt;&lt;u&gt;id&lt;/u&gt;&lt;br&gt;&lt;/div&gt;" style="text;strokeColor=none;fillColor=none;align=left;verticalAlign=top;spacingLeft=4;spacingRight=4;overflow=hidden;rotatable=0;points=[[0,0.5],[1,0.5]];portConstraint=eastwest;whiteSpace=wrap;html=1;" vertex="1" parent="0EmakBo3mS6fOf4XOf90-240">
          <mxGeometry y="26" width="120" height="26" as="geometry" />
        </mxCell>
        <mxCell id="0EmakBo3mS6fOf4XOf90-243" value="&lt;div style=&quot;text-align: center;&quot;&gt;gk_position&lt;/div&gt;" style="text;strokeColor=none;fillColor=none;align=left;verticalAlign=top;spacingLeft=4;spacingRight=4;overflow=hidden;rotatable=0;points=[[0,0.5],[1,0.5]];portConstraint=eastwest;whiteSpace=wrap;html=1;" vertex="1" parent="0EmakBo3mS6fOf4XOf90-240">
          <mxGeometry y="52" width="120" height="26" as="geometry" />
        </mxCell>
        <mxCell id="0EmakBo3mS6fOf4XOf90-244" value="&lt;div style=&quot;text-align: center;&quot;&gt;gk_technique&lt;/div&gt;" style="text;strokeColor=none;fillColor=none;align=left;verticalAlign=top;spacingLeft=4;spacingRight=4;overflow=hidden;rotatable=0;points=[[0,0.5],[1,0.5]];portConstraint=eastwest;whiteSpace=wrap;html=1;" vertex="1" parent="0EmakBo3mS6fOf4XOf90-240">
          <mxGeometry y="78" width="120" height="26" as="geometry" />
        </mxCell>
        <mxCell id="0EmakBo3mS6fOf4XOf90-246" value="&lt;div style=&quot;text-align: center;&quot;&gt;gk_action_type&lt;/div&gt;" style="text;strokeColor=none;fillColor=none;align=left;verticalAlign=top;spacingLeft=4;spacingRight=4;overflow=hidden;rotatable=0;points=[[0,0.5],[1,0.5]];portConstraint=eastwest;whiteSpace=wrap;html=1;" vertex="1" parent="0EmakBo3mS6fOf4XOf90-240">
          <mxGeometry y="104" width="120" height="26" as="geometry" />
        </mxCell>
        <mxCell id="0EmakBo3mS6fOf4XOf90-265" style="edgeStyle=orthogonalEdgeStyle;rounded=0;orthogonalLoop=1;jettySize=auto;html=1;exitX=0;exitY=0.5;exitDx=0;exitDy=0;entryX=1;entryY=0.5;entryDx=0;entryDy=0;endArrow=none;endFill=0;dashed=1;" edge="1" parent="1" source="0EmakBo3mS6fOf4XOf90-263" target="0EmakBo3mS6fOf4XOf90-164">
          <mxGeometry relative="1" as="geometry" />
        </mxCell>
        <mxCell id="0EmakBo3mS6fOf4XOf90-263" value="has" style="rhombus;whiteSpace=wrap;html=1;fillColor=none;fontStyle=0;startSize=26;" vertex="1" parent="1">
          <mxGeometry x="-991" y="-53.5" width="60" height="60" as="geometry" />
        </mxCell>
        <mxCell id="0EmakBo3mS6fOf4XOf90-264" style="edgeStyle=orthogonalEdgeStyle;rounded=0;orthogonalLoop=1;jettySize=auto;html=1;exitX=1;exitY=0.5;exitDx=0;exitDy=0;entryX=-0.007;entryY=0.265;entryDx=0;entryDy=0;entryPerimeter=0;" edge="1" parent="1" source="0EmakBo3mS6fOf4XOf90-263" target="0EmakBo3mS6fOf4XOf90-141">
          <mxGeometry relative="1" as="geometry" />
        </mxCell>
        <mxCell id="0EmakBo3mS6fOf4XOf90-267" value="has" style="rhombus;whiteSpace=wrap;html=1;fillColor=none;fontStyle=0;startSize=26;" vertex="1" parent="1">
          <mxGeometry x="-1740" y="-118.5" width="60" height="60" as="geometry" />
        </mxCell>
        <mxCell id="0EmakBo3mS6fOf4XOf90-268" style="edgeStyle=orthogonalEdgeStyle;rounded=0;orthogonalLoop=1;jettySize=auto;html=1;exitX=1;exitY=0.5;exitDx=0;exitDy=0;dashed=1;endArrow=none;endFill=0;" edge="1" parent="1" source="0EmakBo3mS6fOf4XOf90-267">
          <mxGeometry relative="1" as="geometry">
            <mxPoint x="-820" y="-90" as="targetPoint" />
          </mxGeometry>
        </mxCell>
        <mxCell id="0EmakBo3mS6fOf4XOf90-269" style="edgeStyle=orthogonalEdgeStyle;rounded=0;orthogonalLoop=1;jettySize=auto;html=1;exitX=0;exitY=0.5;exitDx=0;exitDy=0;endArrow=classic;endFill=1;dashed=1;entryX=0.5;entryY=0;entryDx=0;entryDy=0;" edge="1" parent="1" source="0EmakBo3mS6fOf4XOf90-267" target="0EmakBo3mS6fOf4XOf90-154">
          <mxGeometry relative="1" as="geometry">
            <mxPoint x="-2212" y="736" as="targetPoint" />
            <Array as="points">
              <mxPoint x="-2150" y="-88" />
            </Array>
          </mxGeometry>
        </mxCell>
        <mxCell id="0EmakBo3mS6fOf4XOf90-271" value="has" style="rhombus;whiteSpace=wrap;html=1;fillColor=none;fontStyle=0;startSize=26;" vertex="1" parent="1">
          <mxGeometry x="-505" y="340" width="80" height="80" as="geometry" />
        </mxCell>
        <mxCell id="0EmakBo3mS6fOf4XOf90-274" style="edgeStyle=orthogonalEdgeStyle;rounded=0;orthogonalLoop=1;jettySize=auto;html=1;exitX=1;exitY=0.5;exitDx=0;exitDy=0;entryX=0.218;entryY=1.074;entryDx=0;entryDy=0;entryPerimeter=0;endArrow=classic;endFill=1;dashed=1;" edge="1" parent="1" source="0EmakBo3mS6fOf4XOf90-271" target="ihPTWZ4L9GCANW0JNGpA-3">
          <mxGeometry relative="1" as="geometry">
            <Array as="points">
              <mxPoint x="-300" y="380" />
              <mxPoint x="-300" y="200" />
              <mxPoint x="84" y="200" />
            </Array>
          </mxGeometry>
        </mxCell>
        <mxCell id="0EmakBo3mS6fOf4XOf90-280" value="&lt;font color=&quot;#850000&quot;&gt;To make the visualization of events entities possible, an entity consisting of shared attributes is created.&lt;/font&gt;&lt;div&gt;&lt;font color=&quot;#850000&quot;&gt;This entity, named &quot;Shared Event Attributes&quot;, consists of attributes that should be present in all event entities.&lt;/font&gt;&lt;/div&gt;" style="text;html=1;align=left;verticalAlign=middle;whiteSpace=wrap;rounded=0;fontStyle=1;fontSize=13;" vertex="1" parent="1">
          <mxGeometry x="48" y="1310" width="692" height="30" as="geometry" />
        </mxCell>
        <mxCell id="0EmakBo3mS6fOf4XOf90-282" style="edgeStyle=orthogonalEdgeStyle;rounded=0;orthogonalLoop=1;jettySize=auto;html=1;exitX=0;exitY=0.5;exitDx=0;exitDy=0;entryX=1.021;entryY=0.02;entryDx=0;entryDy=0;entryPerimeter=0;endArrow=none;endFill=0;" edge="1" parent="1" source="0EmakBo3mS6fOf4XOf90-271" target="0EmakBo3mS6fOf4XOf90-47">
          <mxGeometry relative="1" as="geometry" />
        </mxCell>
        <mxCell id="0EmakBo3mS6fOf4XOf90-288" style="edgeStyle=orthogonalEdgeStyle;rounded=0;orthogonalLoop=1;jettySize=auto;html=1;exitX=0;exitY=0.5;exitDx=0;exitDy=0;entryX=1;entryY=0.5;entryDx=0;entryDy=0;endArrow=none;endFill=0;" edge="1" parent="1" source="0EmakBo3mS6fOf4XOf90-286" target="0EmakBo3mS6fOf4XOf90-53">
          <mxGeometry relative="1" as="geometry" />
        </mxCell>
        <mxCell id="0EmakBo3mS6fOf4XOf90-293" style="edgeStyle=orthogonalEdgeStyle;rounded=0;orthogonalLoop=1;jettySize=auto;html=1;exitX=1;exitY=0.5;exitDx=0;exitDy=0;entryX=0;entryY=0.5;entryDx=0;entryDy=0;dashed=1;" edge="1" parent="1" source="0EmakBo3mS6fOf4XOf90-286" target="ihPTWZ4L9GCANW0JNGpA-44">
          <mxGeometry relative="1" as="geometry" />
        </mxCell>
        <mxCell id="0EmakBo3mS6fOf4XOf90-286" value="has" style="rhombus;whiteSpace=wrap;html=1;fillColor=none;fontStyle=0;startSize=26;" vertex="1" parent="1">
          <mxGeometry x="-665" y="594.5" width="80" height="80" as="geometry" />
        </mxCell>
        <mxCell id="0EmakBo3mS6fOf4XOf90-290" value="" style="endArrow=none;html=1;rounded=0;dashed=1;fontStyle=1;fontSize=13;" edge="1" parent="1">
          <mxGeometry width="50" height="50" relative="1" as="geometry">
            <mxPoint x="1" y="1227.5" as="sourcePoint" />
            <mxPoint x="41" y="1227.5" as="targetPoint" />
          </mxGeometry>
        </mxCell>
        <mxCell id="0EmakBo3mS6fOf4XOf90-291" value="&lt;span style=&quot;font-size: 13px; font-weight: 700;&quot;&gt;solid line is used to show total participation&lt;/span&gt;" style="text;html=1;align=left;verticalAlign=middle;whiteSpace=wrap;rounded=0;" vertex="1" parent="1">
          <mxGeometry x="48" y="1266" width="290" height="30" as="geometry" />
        </mxCell>
        <mxCell id="0EmakBo3mS6fOf4XOf90-292" value="dotted line is used to show a weak entity" style="text;html=1;align=left;verticalAlign=middle;whiteSpace=wrap;rounded=0;fontStyle=1;fontSize=13;" vertex="1" parent="1">
          <mxGeometry x="48" y="1209" width="312" height="30" as="geometry" />
        </mxCell>
        <mxCell id="0EmakBo3mS6fOf4XOf90-295" style="edgeStyle=orthogonalEdgeStyle;rounded=0;orthogonalLoop=1;jettySize=auto;html=1;exitX=1;exitY=0.5;exitDx=0;exitDy=0;entryX=0;entryY=0.5;entryDx=0;entryDy=0;dashed=1;" edge="1" parent="1" source="0EmakBo3mS6fOf4XOf90-294" target="0EmakBo3mS6fOf4XOf90-152">
          <mxGeometry relative="1" as="geometry" />
        </mxCell>
        <mxCell id="0EmakBo3mS6fOf4XOf90-294" value="has" style="rhombus;whiteSpace=wrap;html=1;fillColor=none;fontStyle=0;startSize=26;" vertex="1" parent="1">
          <mxGeometry x="-690" y="1060" width="60" height="60" as="geometry" />
        </mxCell>
        <mxCell id="0EmakBo3mS6fOf4XOf90-296" style="edgeStyle=orthogonalEdgeStyle;rounded=0;orthogonalLoop=1;jettySize=auto;html=1;exitX=0;exitY=0.5;exitDx=0;exitDy=0;entryX=0.742;entryY=0.96;entryDx=0;entryDy=0;entryPerimeter=0;endArrow=none;endFill=0;dashed=1;" edge="1" parent="1" source="0EmakBo3mS6fOf4XOf90-294" target="0EmakBo3mS6fOf4XOf90-65">
          <mxGeometry relative="1" as="geometry" />
        </mxCell>
        <mxCell id="0EmakBo3mS6fOf4XOf90-298" style="edgeStyle=orthogonalEdgeStyle;rounded=0;orthogonalLoop=1;jettySize=auto;html=1;exitX=0.5;exitY=0;exitDx=0;exitDy=0;entryX=0;entryY=0.5;entryDx=0;entryDy=0;" edge="1" parent="1" source="0EmakBo3mS6fOf4XOf90-297" target="0EmakBo3mS6fOf4XOf90-146">
          <mxGeometry relative="1" as="geometry" />
        </mxCell>
        <mxCell id="0EmakBo3mS6fOf4XOf90-297" value="has" style="rhombus;whiteSpace=wrap;html=1;fillColor=none;fontStyle=0;startSize=26;" vertex="1" parent="1">
          <mxGeometry x="-920" y="183" width="60" height="60" as="geometry" />
        </mxCell>
        <mxCell id="0EmakBo3mS6fOf4XOf90-304" value="has" style="rhombus;whiteSpace=wrap;html=1;fillColor=none;fontStyle=0;startSize=26;" vertex="1" parent="1">
          <mxGeometry x="-1000" y="250" width="60" height="60" as="geometry" />
        </mxCell>
        <mxCell id="0EmakBo3mS6fOf4XOf90-306" style="edgeStyle=orthogonalEdgeStyle;rounded=0;orthogonalLoop=1;jettySize=auto;html=1;exitX=0.5;exitY=1;exitDx=0;exitDy=0;entryX=0.103;entryY=-0.001;entryDx=0;entryDy=0;entryPerimeter=0;dashed=1;" edge="1" parent="1" source="0EmakBo3mS6fOf4XOf90-304" target="0EmakBo3mS6fOf4XOf90-47">
          <mxGeometry relative="1" as="geometry" />
        </mxCell>
        <mxCell id="0EmakBo3mS6fOf4XOf90-312" style="edgeStyle=orthogonalEdgeStyle;rounded=0;orthogonalLoop=1;jettySize=auto;html=1;exitX=0.5;exitY=1;exitDx=0;exitDy=0;entryX=0;entryY=0;entryDx=0;entryDy=0;dashed=1;" edge="1" parent="1" source="0EmakBo3mS6fOf4XOf90-310" target="0EmakBo3mS6fOf4XOf90-47">
          <mxGeometry relative="1" as="geometry" />
        </mxCell>
        <mxCell id="0EmakBo3mS6fOf4XOf90-310" value="has" style="rhombus;whiteSpace=wrap;html=1;fillColor=none;fontStyle=0;startSize=26;" vertex="1" parent="1">
          <mxGeometry x="-1180" y="290" width="60" height="60" as="geometry" />
        </mxCell>
        <mxCell id="0EmakBo3mS6fOf4XOf90-315" style="edgeStyle=orthogonalEdgeStyle;rounded=0;orthogonalLoop=1;jettySize=auto;html=1;exitX=0.5;exitY=1;exitDx=0;exitDy=0;entryX=0.75;entryY=0;entryDx=0;entryDy=0;" edge="1" parent="1" source="0EmakBo3mS6fOf4XOf90-314" target="0EmakBo3mS6fOf4XOf90-71">
          <mxGeometry relative="1" as="geometry" />
        </mxCell>
        <mxCell id="0EmakBo3mS6fOf4XOf90-314" value="has" style="rhombus;whiteSpace=wrap;html=1;fillColor=none;fontStyle=0;startSize=26;" vertex="1" parent="1">
          <mxGeometry x="-945" y="890" width="60" height="60" as="geometry" />
        </mxCell>
        <mxCell id="0EmakBo3mS6fOf4XOf90-316" style="edgeStyle=orthogonalEdgeStyle;rounded=0;orthogonalLoop=1;jettySize=auto;html=1;exitX=0.5;exitY=0;exitDx=0;exitDy=0;entryX=0.458;entryY=1.007;entryDx=0;entryDy=0;entryPerimeter=0;dashed=1;" edge="1" parent="1" source="0EmakBo3mS6fOf4XOf90-314" target="0EmakBo3mS6fOf4XOf90-65">
          <mxGeometry relative="1" as="geometry" />
        </mxCell>
        <mxCell id="0EmakBo3mS6fOf4XOf90-319" style="edgeStyle=orthogonalEdgeStyle;rounded=0;orthogonalLoop=1;jettySize=auto;html=1;exitX=0;exitY=0.5;exitDx=0;exitDy=0;entryX=1;entryY=0.5;entryDx=0;entryDy=0;endArrow=none;endFill=0;dashed=1;" edge="1" parent="1" source="0EmakBo3mS6fOf4XOf90-317" target="0EmakBo3mS6fOf4XOf90-99">
          <mxGeometry relative="1" as="geometry" />
        </mxCell>
        <mxCell id="0EmakBo3mS6fOf4XOf90-317" value="has" style="rhombus;whiteSpace=wrap;html=1;fillColor=none;fontStyle=0;startSize=26;" vertex="1" parent="1">
          <mxGeometry x="-690" y="1250" width="60" height="60" as="geometry" />
        </mxCell>
        <mxCell id="0EmakBo3mS6fOf4XOf90-318" style="edgeStyle=orthogonalEdgeStyle;rounded=0;orthogonalLoop=1;jettySize=auto;html=1;exitX=1;exitY=0.5;exitDx=0;exitDy=0;entryX=-0.017;entryY=-0.158;entryDx=0;entryDy=0;entryPerimeter=0;dashed=1;" edge="1" parent="1" source="0EmakBo3mS6fOf4XOf90-317" target="0EmakBo3mS6fOf4XOf90-159">
          <mxGeometry relative="1" as="geometry" />
        </mxCell>
        <mxCell id="0EmakBo3mS6fOf4XOf90-321" style="edgeStyle=orthogonalEdgeStyle;rounded=0;orthogonalLoop=1;jettySize=auto;html=1;exitX=0;exitY=0.5;exitDx=0;exitDy=0;entryX=1;entryY=0.5;entryDx=0;entryDy=0;endArrow=none;endFill=0;dashed=1;" edge="1" parent="1" source="0EmakBo3mS6fOf4XOf90-322">
          <mxGeometry relative="1" as="geometry">
            <mxPoint x="-875" y="1401" as="targetPoint" />
          </mxGeometry>
        </mxCell>
        <mxCell id="0EmakBo3mS6fOf4XOf90-322" value="has" style="rhombus;whiteSpace=wrap;html=1;fillColor=none;fontStyle=0;startSize=26;" vertex="1" parent="1">
          <mxGeometry x="-688" y="1372" width="60" height="60" as="geometry" />
        </mxCell>
        <mxCell id="0EmakBo3mS6fOf4XOf90-323" style="edgeStyle=orthogonalEdgeStyle;rounded=0;orthogonalLoop=1;jettySize=auto;html=1;exitX=1;exitY=0.5;exitDx=0;exitDy=0;entryX=-0.017;entryY=-0.158;entryDx=0;entryDy=0;entryPerimeter=0;dashed=1;" edge="1" parent="1" source="0EmakBo3mS6fOf4XOf90-322">
          <mxGeometry relative="1" as="geometry">
            <mxPoint x="-525" y="1402" as="targetPoint" />
          </mxGeometry>
        </mxCell>
        <mxCell id="0EmakBo3mS6fOf4XOf90-324" value="has" style="rhombus;whiteSpace=wrap;html=1;fillColor=none;fontStyle=0;startSize=26;" vertex="1" parent="1">
          <mxGeometry x="-1350" y="290" width="60" height="60" as="geometry" />
        </mxCell>
        <mxCell id="0EmakBo3mS6fOf4XOf90-325" style="edgeStyle=orthogonalEdgeStyle;rounded=0;orthogonalLoop=1;jettySize=auto;html=1;exitX=0.5;exitY=0;exitDx=0;exitDy=0;entryX=0.498;entryY=1.039;entryDx=0;entryDy=0;entryPerimeter=0;" edge="1" parent="1" source="0EmakBo3mS6fOf4XOf90-324" target="0EmakBo3mS6fOf4XOf90-186">
          <mxGeometry relative="1" as="geometry" />
        </mxCell>
        <mxCell id="0EmakBo3mS6fOf4XOf90-326" style="edgeStyle=orthogonalEdgeStyle;rounded=0;orthogonalLoop=1;jettySize=auto;html=1;exitX=0.5;exitY=1;exitDx=0;exitDy=0;entryX=0.005;entryY=0.043;entryDx=0;entryDy=0;entryPerimeter=0;dashed=1;" edge="1" parent="1" source="0EmakBo3mS6fOf4XOf90-324" target="0EmakBo3mS6fOf4XOf90-47">
          <mxGeometry relative="1" as="geometry" />
        </mxCell>
        <mxCell id="0EmakBo3mS6fOf4XOf90-328" style="edgeStyle=orthogonalEdgeStyle;rounded=0;orthogonalLoop=1;jettySize=auto;html=1;exitX=1;exitY=0.5;exitDx=0;exitDy=0;entryX=0;entryY=0.5;entryDx=0;entryDy=0;dashed=1;endArrow=none;endFill=0;" edge="1" parent="1" source="0EmakBo3mS6fOf4XOf90-327" target="0EmakBo3mS6fOf4XOf90-181">
          <mxGeometry relative="1" as="geometry" />
        </mxCell>
        <mxCell id="0EmakBo3mS6fOf4XOf90-329" style="edgeStyle=orthogonalEdgeStyle;rounded=0;orthogonalLoop=1;jettySize=auto;html=1;exitX=0;exitY=0.5;exitDx=0;exitDy=0;entryX=1;entryY=0.5;entryDx=0;entryDy=0;dashed=1;" edge="1" parent="1" source="0EmakBo3mS6fOf4XOf90-327" target="0EmakBo3mS6fOf4XOf90-170">
          <mxGeometry relative="1" as="geometry" />
        </mxCell>
        <mxCell id="0EmakBo3mS6fOf4XOf90-327" value="has" style="rhombus;whiteSpace=wrap;html=1;fillColor=none;fontStyle=0;startSize=26;" vertex="1" parent="1">
          <mxGeometry x="-1500" y="114.5" width="60" height="60" as="geometry" />
        </mxCell>
        <mxCell id="0EmakBo3mS6fOf4XOf90-335" style="edgeStyle=orthogonalEdgeStyle;rounded=0;orthogonalLoop=1;jettySize=auto;html=1;exitX=0.5;exitY=1;exitDx=0;exitDy=0;entryX=0;entryY=0.5;entryDx=0;entryDy=0;dashed=1;" edge="1" parent="1" source="0EmakBo3mS6fOf4XOf90-333" target="0EmakBo3mS6fOf4XOf90-313">
          <mxGeometry relative="1" as="geometry">
            <Array as="points">
              <mxPoint x="-1620" y="479" />
              <mxPoint x="-1325" y="479" />
            </Array>
          </mxGeometry>
        </mxCell>
        <mxCell id="0EmakBo3mS6fOf4XOf90-346" style="edgeStyle=orthogonalEdgeStyle;rounded=0;orthogonalLoop=1;jettySize=auto;html=1;exitX=0;exitY=0.5;exitDx=0;exitDy=0;entryX=1;entryY=0.5;entryDx=0;entryDy=0;" edge="1" parent="1" source="0EmakBo3mS6fOf4XOf90-333" target="0EmakBo3mS6fOf4XOf90-233">
          <mxGeometry relative="1" as="geometry" />
        </mxCell>
        <mxCell id="0EmakBo3mS6fOf4XOf90-333" value="has" style="rhombus;whiteSpace=wrap;html=1;fillColor=none;fontStyle=0;startSize=26;" vertex="1" parent="1">
          <mxGeometry x="-1650" y="281" width="60" height="60" as="geometry" />
        </mxCell>
        <mxCell id="0EmakBo3mS6fOf4XOf90-339" style="edgeStyle=orthogonalEdgeStyle;rounded=0;orthogonalLoop=1;jettySize=auto;html=1;exitX=1;exitY=0.5;exitDx=0;exitDy=0;entryX=0;entryY=0.5;entryDx=0;entryDy=0;dashed=1;" edge="1" parent="1" source="0EmakBo3mS6fOf4XOf90-337" target="0EmakBo3mS6fOf4XOf90-53">
          <mxGeometry relative="1" as="geometry" />
        </mxCell>
        <mxCell id="0EmakBo3mS6fOf4XOf90-347" style="edgeStyle=orthogonalEdgeStyle;rounded=0;orthogonalLoop=1;jettySize=auto;html=1;exitX=0;exitY=0.5;exitDx=0;exitDy=0;entryX=1;entryY=0.5;entryDx=0;entryDy=0;" edge="1" parent="1" source="0EmakBo3mS6fOf4XOf90-337" target="0EmakBo3mS6fOf4XOf90-206">
          <mxGeometry relative="1" as="geometry" />
        </mxCell>
        <mxCell id="0EmakBo3mS6fOf4XOf90-337" value="has" style="rhombus;whiteSpace=wrap;html=1;fillColor=none;fontStyle=0;startSize=26;" vertex="1" parent="1">
          <mxGeometry x="-1480" y="500" width="60" height="60" as="geometry" />
        </mxCell>
        <mxCell id="0EmakBo3mS6fOf4XOf90-341" style="edgeStyle=orthogonalEdgeStyle;rounded=0;orthogonalLoop=1;jettySize=auto;html=1;exitX=0.5;exitY=0;exitDx=0;exitDy=0;entryX=1;entryY=0.5;entryDx=0;entryDy=0;" edge="1" parent="1" source="0EmakBo3mS6fOf4XOf90-340" target="0EmakBo3mS6fOf4XOf90-230">
          <mxGeometry relative="1" as="geometry" />
        </mxCell>
        <mxCell id="0EmakBo3mS6fOf4XOf90-342" style="edgeStyle=orthogonalEdgeStyle;rounded=0;orthogonalLoop=1;jettySize=auto;html=1;exitX=1;exitY=0.5;exitDx=0;exitDy=0;dashed=1;" edge="1" parent="1" source="0EmakBo3mS6fOf4XOf90-340">
          <mxGeometry relative="1" as="geometry">
            <mxPoint x="-930" y="560" as="targetPoint" />
            <Array as="points">
              <mxPoint x="-1330" y="660" />
              <mxPoint x="-1330" y="560" />
              <mxPoint x="-930" y="560" />
            </Array>
          </mxGeometry>
        </mxCell>
        <mxCell id="0EmakBo3mS6fOf4XOf90-340" value="has" style="rhombus;whiteSpace=wrap;html=1;fillColor=none;fontStyle=0;startSize=26;" vertex="1" parent="1">
          <mxGeometry x="-1790" y="630" width="60" height="60" as="geometry" />
        </mxCell>
        <mxCell id="0EmakBo3mS6fOf4XOf90-344" style="edgeStyle=orthogonalEdgeStyle;rounded=0;orthogonalLoop=1;jettySize=auto;html=1;exitX=0;exitY=0.5;exitDx=0;exitDy=0;entryX=1;entryY=0.5;entryDx=0;entryDy=0;" edge="1" parent="1" source="0EmakBo3mS6fOf4XOf90-343" target="0EmakBo3mS6fOf4XOf90-201">
          <mxGeometry relative="1" as="geometry" />
        </mxCell>
        <mxCell id="0EmakBo3mS6fOf4XOf90-345" style="edgeStyle=orthogonalEdgeStyle;rounded=0;orthogonalLoop=1;jettySize=auto;html=1;exitX=1;exitY=0.5;exitDx=0;exitDy=0;entryX=0;entryY=0.5;entryDx=0;entryDy=0;dashed=1;" edge="1" parent="1" source="0EmakBo3mS6fOf4XOf90-343" target="0EmakBo3mS6fOf4XOf90-58">
          <mxGeometry relative="1" as="geometry">
            <Array as="points">
              <mxPoint x="-1310" y="718" />
              <mxPoint x="-1310" y="583" />
            </Array>
          </mxGeometry>
        </mxCell>
        <mxCell id="0EmakBo3mS6fOf4XOf90-343" value="has" style="rhombus;whiteSpace=wrap;html=1;fillColor=none;fontStyle=0;startSize=26;" vertex="1" parent="1">
          <mxGeometry x="-1480" y="683" width="60" height="60" as="geometry" />
        </mxCell>
        <mxCell id="0EmakBo3mS6fOf4XOf90-350" style="edgeStyle=orthogonalEdgeStyle;rounded=0;orthogonalLoop=1;jettySize=auto;html=1;exitX=1;exitY=0.5;exitDx=0;exitDy=0;entryX=0;entryY=0.5;entryDx=0;entryDy=0;dashed=1;" edge="1" parent="1" source="0EmakBo3mS6fOf4XOf90-348" target="0EmakBo3mS6fOf4XOf90-59">
          <mxGeometry relative="1" as="geometry">
            <Array as="points">
              <mxPoint x="-1280" y="798" />
              <mxPoint x="-1280" y="609" />
            </Array>
          </mxGeometry>
        </mxCell>
        <mxCell id="0EmakBo3mS6fOf4XOf90-348" value="has" style="rhombus;whiteSpace=wrap;html=1;fillColor=none;fontStyle=0;startSize=26;" vertex="1" parent="1">
          <mxGeometry x="-1800" y="768" width="60" height="60" as="geometry" />
        </mxCell>
        <mxCell id="0EmakBo3mS6fOf4XOf90-349" style="edgeStyle=orthogonalEdgeStyle;rounded=0;orthogonalLoop=1;jettySize=auto;html=1;exitX=0;exitY=0.5;exitDx=0;exitDy=0;entryX=1.029;entryY=0.218;entryDx=0;entryDy=0;entryPerimeter=0;" edge="1" parent="1" source="0EmakBo3mS6fOf4XOf90-348" target="0EmakBo3mS6fOf4XOf90-222">
          <mxGeometry relative="1" as="geometry" />
        </mxCell>
        <mxCell id="0EmakBo3mS6fOf4XOf90-353" style="edgeStyle=orthogonalEdgeStyle;rounded=0;orthogonalLoop=1;jettySize=auto;html=1;exitX=0.5;exitY=1;exitDx=0;exitDy=0;entryX=0.5;entryY=0;entryDx=0;entryDy=0;dashed=1;" edge="1" parent="1" source="0EmakBo3mS6fOf4XOf90-351" target="0EmakBo3mS6fOf4XOf90-160">
          <mxGeometry relative="1" as="geometry" />
        </mxCell>
        <mxCell id="0EmakBo3mS6fOf4XOf90-351" value="uses" style="rhombus;whiteSpace=wrap;html=1;fillColor=none;fontStyle=0;startSize=26;" vertex="1" parent="1">
          <mxGeometry x="-989" y="1528" width="60" height="60" as="geometry" />
        </mxCell>
        <mxCell id="0EmakBo3mS6fOf4XOf90-352" style="edgeStyle=orthogonalEdgeStyle;rounded=0;orthogonalLoop=1;jettySize=auto;html=1;exitX=0.5;exitY=0;exitDx=0;exitDy=0;entryX=0.471;entryY=1.004;entryDx=0;entryDy=0;entryPerimeter=0;endArrow=none;endFill=0;dashed=1;" edge="1" parent="1" source="0EmakBo3mS6fOf4XOf90-351" target="0EmakBo3mS6fOf4XOf90-106">
          <mxGeometry relative="1" as="geometry" />
        </mxCell>
        <mxCell id="0EmakBo3mS6fOf4XOf90-355" style="edgeStyle=orthogonalEdgeStyle;rounded=0;orthogonalLoop=1;jettySize=auto;html=1;exitX=0.5;exitY=1;exitDx=0;exitDy=0;entryX=0;entryY=0.5;entryDx=0;entryDy=0;dashed=1;" edge="1" parent="1" source="0EmakBo3mS6fOf4XOf90-354" target="0EmakBo3mS6fOf4XOf90-161">
          <mxGeometry relative="1" as="geometry" />
        </mxCell>
        <mxCell id="0EmakBo3mS6fOf4XOf90-354" value="uses" style="rhombus;whiteSpace=wrap;html=1;fillColor=none;fontStyle=0;startSize=26;" vertex="1" parent="1">
          <mxGeometry x="-1167" y="1550" width="60" height="60" as="geometry" />
        </mxCell>
        <mxCell id="0EmakBo3mS6fOf4XOf90-357" style="edgeStyle=orthogonalEdgeStyle;rounded=0;orthogonalLoop=1;jettySize=auto;html=1;exitX=0.5;exitY=0;exitDx=0;exitDy=0;entryX=0.521;entryY=1.004;entryDx=0;entryDy=0;entryPerimeter=0;dashed=1;endArrow=none;endFill=0;" edge="1" parent="1" source="0EmakBo3mS6fOf4XOf90-354" target="0EmakBo3mS6fOf4XOf90-227">
          <mxGeometry relative="1" as="geometry" />
        </mxCell>
        <mxCell id="0EmakBo3mS6fOf4XOf90-360" style="edgeStyle=orthogonalEdgeStyle;rounded=0;orthogonalLoop=1;jettySize=auto;html=1;exitX=0.5;exitY=1;exitDx=0;exitDy=0;entryX=0.5;entryY=0;entryDx=0;entryDy=0;" edge="1" parent="1" source="0EmakBo3mS6fOf4XOf90-358" target="0EmakBo3mS6fOf4XOf90-224">
          <mxGeometry relative="1" as="geometry" />
        </mxCell>
        <mxCell id="0EmakBo3mS6fOf4XOf90-414" style="edgeStyle=orthogonalEdgeStyle;rounded=0;orthogonalLoop=1;jettySize=auto;html=1;exitX=0.5;exitY=0;exitDx=0;exitDy=0;entryX=0;entryY=0.5;entryDx=0;entryDy=0;dashed=1;" edge="1" parent="1" source="0EmakBo3mS6fOf4XOf90-358" target="0EmakBo3mS6fOf4XOf90-65">
          <mxGeometry relative="1" as="geometry" />
        </mxCell>
        <mxCell id="0EmakBo3mS6fOf4XOf90-358" value="has" style="rhombus;whiteSpace=wrap;html=1;fillColor=none;fontStyle=0;startSize=26;" vertex="1" parent="1">
          <mxGeometry x="-1170" y="1172" width="60" height="60" as="geometry" />
        </mxCell>
        <mxCell id="0EmakBo3mS6fOf4XOf90-371" style="edgeStyle=orthogonalEdgeStyle;rounded=0;orthogonalLoop=1;jettySize=auto;html=1;exitX=0;exitY=0.5;exitDx=0;exitDy=0;entryX=0.75;entryY=0;entryDx=0;entryDy=0;dashed=1;" edge="1" parent="1" source="0EmakBo3mS6fOf4XOf90-372" target="0EmakBo3mS6fOf4XOf90-154">
          <mxGeometry relative="1" as="geometry">
            <mxPoint x="-2340" y="882.5" as="targetPoint" />
          </mxGeometry>
        </mxCell>
        <mxCell id="0EmakBo3mS6fOf4XOf90-372" value="has" style="rhombus;whiteSpace=wrap;html=1;fillColor=none;fontStyle=0;startSize=26;" vertex="1" parent="1">
          <mxGeometry x="-2080" y="282" width="60" height="60" as="geometry" />
        </mxCell>
        <mxCell id="0EmakBo3mS6fOf4XOf90-375" style="edgeStyle=orthogonalEdgeStyle;rounded=0;orthogonalLoop=1;jettySize=auto;html=1;exitX=0;exitY=0.5;exitDx=0;exitDy=0;entryX=1;entryY=0;entryDx=0;entryDy=0;dashed=1;" edge="1" parent="1" source="0EmakBo3mS6fOf4XOf90-376" target="0EmakBo3mS6fOf4XOf90-154">
          <mxGeometry relative="1" as="geometry">
            <mxPoint x="-2120" y="907.5" as="targetPoint" />
          </mxGeometry>
        </mxCell>
        <mxCell id="0EmakBo3mS6fOf4XOf90-376" value="has" style="rhombus;whiteSpace=wrap;html=1;fillColor=none;fontStyle=0;startSize=26;" vertex="1" parent="1">
          <mxGeometry x="-2070" y="559" width="60" height="60" as="geometry" />
        </mxCell>
        <mxCell id="0EmakBo3mS6fOf4XOf90-377" style="edgeStyle=orthogonalEdgeStyle;rounded=0;orthogonalLoop=1;jettySize=auto;html=1;exitX=0;exitY=0.5;exitDx=0;exitDy=0;endArrow=none;endFill=0;dashed=1;" edge="1" parent="1" target="0EmakBo3mS6fOf4XOf90-376">
          <mxGeometry relative="1" as="geometry">
            <mxPoint x="-1960" y="588.5" as="sourcePoint" />
          </mxGeometry>
        </mxCell>
        <mxCell id="0EmakBo3mS6fOf4XOf90-379" value="has" style="rhombus;whiteSpace=wrap;html=1;fillColor=none;fontStyle=0;startSize=26;" vertex="1" parent="1">
          <mxGeometry x="-2140" y="1011" width="60" height="60" as="geometry" />
        </mxCell>
        <mxCell id="0EmakBo3mS6fOf4XOf90-380" style="edgeStyle=orthogonalEdgeStyle;rounded=0;orthogonalLoop=1;jettySize=auto;html=1;exitX=0;exitY=0.5;exitDx=0;exitDy=0;entryX=1;entryY=0.5;entryDx=0;entryDy=0;endArrow=none;endFill=0;dashed=1;" edge="1" parent="1" source="0EmakBo3mS6fOf4XOf90-237" target="0EmakBo3mS6fOf4XOf90-372">
          <mxGeometry relative="1" as="geometry" />
        </mxCell>
        <mxCell id="0EmakBo3mS6fOf4XOf90-381" style="edgeStyle=orthogonalEdgeStyle;rounded=0;orthogonalLoop=1;jettySize=auto;html=1;exitX=0;exitY=0.5;exitDx=0;exitDy=0;entryX=1;entryY=0.5;entryDx=0;entryDy=0;" edge="1" parent="1" source="0EmakBo3mS6fOf4XOf90-382" target="0EmakBo3mS6fOf4XOf90-192">
          <mxGeometry relative="1" as="geometry">
            <mxPoint x="-1520" y="898" as="targetPoint" />
          </mxGeometry>
        </mxCell>
        <mxCell id="0EmakBo3mS6fOf4XOf90-382" value="has" style="rhombus;whiteSpace=wrap;html=1;fillColor=none;fontStyle=0;startSize=26;" vertex="1" parent="1">
          <mxGeometry x="-1440" y="890" width="60" height="60" as="geometry" />
        </mxCell>
        <mxCell id="0EmakBo3mS6fOf4XOf90-383" style="edgeStyle=orthogonalEdgeStyle;rounded=0;orthogonalLoop=1;jettySize=auto;html=1;exitX=0;exitY=0.5;exitDx=0;exitDy=0;entryX=1;entryY=0.5;entryDx=0;entryDy=0;dashed=1;endArrow=none;endFill=0;" edge="1" parent="1" source="0EmakBo3mS6fOf4XOf90-130" target="0EmakBo3mS6fOf4XOf90-382">
          <mxGeometry relative="1" as="geometry">
            <Array as="points">
              <mxPoint x="-1250" y="661" />
              <mxPoint x="-1250" y="920" />
            </Array>
          </mxGeometry>
        </mxCell>
        <mxCell id="0EmakBo3mS6fOf4XOf90-384" style="edgeStyle=orthogonalEdgeStyle;rounded=0;orthogonalLoop=1;jettySize=auto;html=1;exitX=0;exitY=0.5;exitDx=0;exitDy=0;" edge="1" parent="1" source="0EmakBo3mS6fOf4XOf90-385">
          <mxGeometry relative="1" as="geometry">
            <mxPoint x="-1550" y="1142" as="targetPoint" />
          </mxGeometry>
        </mxCell>
        <mxCell id="0EmakBo3mS6fOf4XOf90-385" value="has" style="rhombus;whiteSpace=wrap;html=1;fillColor=none;fontStyle=0;startSize=26;" vertex="1" parent="1">
          <mxGeometry x="-1430" y="1112" width="60" height="60" as="geometry" />
        </mxCell>
        <mxCell id="0EmakBo3mS6fOf4XOf90-386" style="edgeStyle=orthogonalEdgeStyle;rounded=0;orthogonalLoop=1;jettySize=auto;html=1;exitX=0;exitY=0.5;exitDx=0;exitDy=0;entryX=1;entryY=0.5;entryDx=0;entryDy=0;" edge="1" parent="1" source="0EmakBo3mS6fOf4XOf90-387">
          <mxGeometry relative="1" as="geometry">
            <mxPoint x="-1550" y="1340" as="targetPoint" />
          </mxGeometry>
        </mxCell>
        <mxCell id="0EmakBo3mS6fOf4XOf90-387" value="has" style="rhombus;whiteSpace=wrap;html=1;fillColor=none;fontStyle=0;startSize=26;" vertex="1" parent="1">
          <mxGeometry x="-1430" y="1310" width="60" height="60" as="geometry" />
        </mxCell>
        <mxCell id="0EmakBo3mS6fOf4XOf90-388" style="edgeStyle=orthogonalEdgeStyle;rounded=0;orthogonalLoop=1;jettySize=auto;html=1;exitX=0;exitY=0.5;exitDx=0;exitDy=0;entryX=1;entryY=0.5;entryDx=0;entryDy=0;dashed=1;endArrow=none;endFill=0;" edge="1" parent="1" source="0EmakBo3mS6fOf4XOf90-131" target="0EmakBo3mS6fOf4XOf90-385">
          <mxGeometry relative="1" as="geometry">
            <Array as="points">
              <mxPoint x="-1230" y="687" />
              <mxPoint x="-1230" y="1142" />
            </Array>
          </mxGeometry>
        </mxCell>
        <mxCell id="0EmakBo3mS6fOf4XOf90-389" style="edgeStyle=orthogonalEdgeStyle;rounded=0;orthogonalLoop=1;jettySize=auto;html=1;exitX=0;exitY=0.5;exitDx=0;exitDy=0;entryX=1;entryY=0.5;entryDx=0;entryDy=0;dashed=1;endArrow=none;endFill=0;" edge="1" parent="1" source="0EmakBo3mS6fOf4XOf90-276" target="0EmakBo3mS6fOf4XOf90-387">
          <mxGeometry relative="1" as="geometry">
            <Array as="points">
              <mxPoint x="-1210" y="713" />
              <mxPoint x="-1210" y="1340" />
            </Array>
          </mxGeometry>
        </mxCell>
        <mxCell id="0EmakBo3mS6fOf4XOf90-404" style="edgeStyle=orthogonalEdgeStyle;rounded=0;orthogonalLoop=1;jettySize=auto;html=1;exitX=0.5;exitY=1;exitDx=0;exitDy=0;entryX=0;entryY=0.5;entryDx=0;entryDy=0;dashed=1;" edge="1" parent="1" source="0EmakBo3mS6fOf4XOf90-405" target="0EmakBo3mS6fOf4XOf90-162">
          <mxGeometry relative="1" as="geometry">
            <mxPoint x="-1470" y="1739" as="targetPoint" />
          </mxGeometry>
        </mxCell>
        <mxCell id="0EmakBo3mS6fOf4XOf90-405" value="uses" style="rhombus;whiteSpace=wrap;html=1;fillColor=none;fontStyle=0;startSize=26;" vertex="1" parent="1">
          <mxGeometry x="-1632" y="1600" width="60" height="60" as="geometry" />
        </mxCell>
        <mxCell id="0EmakBo3mS6fOf4XOf90-406" style="edgeStyle=orthogonalEdgeStyle;rounded=0;orthogonalLoop=1;jettySize=auto;html=1;exitX=0.5;exitY=0;exitDx=0;exitDy=0;entryX=0.565;entryY=0.975;entryDx=0;entryDy=0;entryPerimeter=0;dashed=1;endArrow=none;endFill=0;" edge="1" parent="1" source="0EmakBo3mS6fOf4XOf90-405" target="0EmakBo3mS6fOf4XOf90-246">
          <mxGeometry relative="1" as="geometry" />
        </mxCell>
        <mxCell id="0EmakBo3mS6fOf4XOf90-407" style="edgeStyle=orthogonalEdgeStyle;rounded=0;orthogonalLoop=1;jettySize=auto;html=1;exitX=0;exitY=0.5;exitDx=0;exitDy=0;entryX=0.5;entryY=1;entryDx=0;entryDy=0;dashed=1;endArrow=none;endFill=0;" edge="1" parent="1" target="0EmakBo3mS6fOf4XOf90-379">
          <mxGeometry relative="1" as="geometry">
            <mxPoint x="-1670" y="1315" as="sourcePoint" />
          </mxGeometry>
        </mxCell>
        <mxCell id="0EmakBo3mS6fOf4XOf90-408" style="edgeStyle=orthogonalEdgeStyle;rounded=0;orthogonalLoop=1;jettySize=auto;html=1;exitX=0.5;exitY=0;exitDx=0;exitDy=0;entryX=0.785;entryY=0.983;entryDx=0;entryDy=0;entryPerimeter=0;dashed=1;" edge="1" parent="1">
          <mxGeometry relative="1" as="geometry">
            <mxPoint x="-2106" y="1011" as="sourcePoint" />
            <mxPoint x="-2111.8" y="790.558" as="targetPoint" />
            <Array as="points">
              <mxPoint x="-2106" y="1012" />
              <mxPoint x="-2112" y="1012" />
            </Array>
          </mxGeometry>
        </mxCell>
        <mxCell id="0EmakBo3mS6fOf4XOf90-409" value="has" style="rhombus;whiteSpace=wrap;html=1;fillColor=none;fontStyle=0;startSize=26;" vertex="1" parent="1">
          <mxGeometry x="-2200" y="1407" width="60" height="60" as="geometry" />
        </mxCell>
        <mxCell id="0EmakBo3mS6fOf4XOf90-410" style="edgeStyle=orthogonalEdgeStyle;rounded=0;orthogonalLoop=1;jettySize=auto;html=1;exitX=0.5;exitY=0;exitDx=0;exitDy=0;entryX=0.344;entryY=1.098;entryDx=0;entryDy=0;dashed=1;entryPerimeter=0;" edge="1" parent="1" source="0EmakBo3mS6fOf4XOf90-409" target="0EmakBo3mS6fOf4XOf90-156">
          <mxGeometry relative="1" as="geometry">
            <mxPoint x="-2230" y="1220" as="targetPoint" />
            <Array as="points">
              <mxPoint x="-2170" y="800" />
              <mxPoint x="-2169" y="800" />
            </Array>
          </mxGeometry>
        </mxCell>
        <mxCell id="0EmakBo3mS6fOf4XOf90-411" style="edgeStyle=orthogonalEdgeStyle;rounded=0;orthogonalLoop=1;jettySize=auto;html=1;exitX=0;exitY=0.5;exitDx=0;exitDy=0;entryX=1;entryY=0.5;entryDx=0;entryDy=0;endArrow=none;endFill=0;dashed=1;" edge="1" parent="1" source="0EmakBo3mS6fOf4XOf90-106" target="0EmakBo3mS6fOf4XOf90-409">
          <mxGeometry relative="1" as="geometry" />
        </mxCell>
        <mxCell id="0EmakBo3mS6fOf4XOf90-412" style="edgeStyle=orthogonalEdgeStyle;rounded=0;orthogonalLoop=1;jettySize=auto;html=1;exitX=0.5;exitY=0;exitDx=0;exitDy=0;entryX=0.653;entryY=1.017;entryDx=0;entryDy=0;entryPerimeter=0;" edge="1" parent="1" source="0EmakBo3mS6fOf4XOf90-304" target="0EmakBo3mS6fOf4XOf90-214">
          <mxGeometry relative="1" as="geometry" />
        </mxCell>
        <mxCell id="0EmakBo3mS6fOf4XOf90-413" style="edgeStyle=orthogonalEdgeStyle;rounded=0;orthogonalLoop=1;jettySize=auto;html=1;exitX=0.5;exitY=0;exitDx=0;exitDy=0;entryX=0.578;entryY=0.979;entryDx=0;entryDy=0;entryPerimeter=0;" edge="1" parent="1" source="0EmakBo3mS6fOf4XOf90-310" target="0EmakBo3mS6fOf4XOf90-308">
          <mxGeometry relative="1" as="geometry" />
        </mxCell>
        <mxCell id="0EmakBo3mS6fOf4XOf90-416" value="uses" style="rhombus;whiteSpace=wrap;html=1;fillColor=none;fontStyle=0;startSize=26;" vertex="1" parent="1">
          <mxGeometry x="-1580" y="-166" width="60" height="60" as="geometry" />
        </mxCell>
        <mxCell id="0EmakBo3mS6fOf4XOf90-417" style="edgeStyle=orthogonalEdgeStyle;rounded=0;orthogonalLoop=1;jettySize=auto;html=1;exitX=-0.004;exitY=-0.066;exitDx=0;exitDy=0;entryX=1;entryY=0.5;entryDx=0;entryDy=0;exitPerimeter=0;endArrow=none;endFill=0;dashed=1;" edge="1" parent="1" source="0EmakBo3mS6fOf4XOf90-121" target="0EmakBo3mS6fOf4XOf90-416">
          <mxGeometry relative="1" as="geometry" />
        </mxCell>
        <mxCell id="0EmakBo3mS6fOf4XOf90-418" style="edgeStyle=orthogonalEdgeStyle;rounded=0;orthogonalLoop=1;jettySize=auto;html=1;exitX=0;exitY=0.5;exitDx=0;exitDy=0;entryX=0.489;entryY=1.051;entryDx=0;entryDy=0;entryPerimeter=0;dashed=1;" edge="1" parent="1" source="0EmakBo3mS6fOf4XOf90-416" target="0EmakBo3mS6fOf4XOf90-162">
          <mxGeometry relative="1" as="geometry">
            <Array as="points">
              <mxPoint x="-2240" y="-136" />
              <mxPoint x="-2240" y="1760" />
              <mxPoint x="-960" y="1760" />
            </Array>
          </mxGeometry>
        </mxCell>
      </root>
    </mxGraphModel>
  </diagram>
</mxfile>
